<?xml version="1.0" encoding="UTF-8"?> <svg xmlns="http://www.w3.org/2000/svg" viewBox="0 0 41.00 41.00" data-guides="{&quot;vertical&quot;:[],&quot;horizontal&quot;:[]}"><defs></defs><path fill="#2a2724" stroke="none" fill-opacity="1" stroke-width="1" stroke-opacity="1" id="tSvg1508dac40e7" title="Path 1" d="M20.5 3.8434C11.3158 3.8434 3.8438 11.3155 3.8438 20.4997C3.8438 29.6838 11.3158 37.1558 20.5 37.1558C29.6842 37.1558 37.1562 29.6838 37.1562 20.4997C37.1562 11.3155 29.6842 3.8434 20.5 3.8434ZM26.4874 21.2444C23.4324 23.0899 20.3775 24.9355 17.3225 26.7811C17.1911 26.8598 17.0412 26.902 16.8881 26.9037C16.7349 26.9053 16.5841 26.8662 16.4511 26.7904C16.3181 26.7145 16.2076 26.6045 16.1311 26.4719C16.0546 26.3392 16.0148 26.1887 16.0156 26.0355C16.0156 22.345 16.0156 18.6544 16.0156 14.9639C16.0148 14.8108 16.0546 14.6602 16.1311 14.5275C16.2076 14.3948 16.3181 14.2849 16.4511 14.2091C16.5841 14.1331 16.7349 14.094 16.8881 14.0957C17.0412 14.0973 17.1911 14.1396 17.3225 14.2184C20.3775 16.0639 23.4324 17.9095 26.4874 19.755C26.6151 19.8328 26.7208 19.9421 26.7941 20.0725C26.8673 20.203 26.9058 20.35 26.9058 20.4997C26.9058 20.6493 26.8673 20.7963 26.7941 20.9268C26.7208 21.0572 26.6151 21.1665 26.4874 21.2444Z"></path></svg> 