<?xml version="1.0" encoding="UTF-8"?> <svg xmlns="http://www.w3.org/2000/svg" id="Layer_2" data-name="Layer 2" viewBox="0 0 1060.04 641.53"><defs><style> .cls-1 { fill: #282828; } </style></defs><g id="Layer_1-2" data-name="Layer 1"><g><path class="cls-1" d="M1053.41,521.99c1.98-.88,3.97-1.53,5.95-2.01.19-.91.42-1.82.68-2.73-.91-.69-1.8-1.42-2.67-2.19l-.54,1.01c-19.17,3.62-37.72-9.72-49.01-24.01-6.82-8.63-11.87-20.17-19.96-28.03-8.06-7.82-19.08-12.8-27.51-19.49-4.6-3.65-8.77-10.7-12.47-13.53-1.37-1.05-2.08-1.84-4.05-1.44l17.36,29.12c12.01,17.14,24.22,32.52,42.29,43.7l21.32,12.16-37.13-3.56c-9.35-2.53-19.34-3.55-28.86-2.44l1.02-1.98c-3.32-.52-6.2,1.13-9.32,1.67-18.41,3.2-40.87,4.42-60.22,10.29-17.26,5.23-43.93,17.2-59.14,26.84-2.56,1.62-4.07,2.18-1.85,5.12,16.24-10.25,35.88-7.49,52.98-12.98,9.79-3.14,19.13-10.38,28.55-14.44,15.22-6.56,33.63-8.8,49.99-10.49.56,2.68-.71,1.72-1.97,2.48-11.31,6.79-25.07,11.69-34.24,20.31-23.25-5.75-47.94,15.29-59.19,34.28-2.64,4.46-5.34,15.03-5.82,15.75-4.79,7.24-1.83,7.36-4.29,15.14-1.86,5.88-21,38.19-18.46,41.02,3.47-.17,4.83-4.29,6.97-6.52,5.91-6.16,11.29-12.67,19.58-15.41,20.68-6.85,40.53-3.53,54.84-24.15,5.33-7.67,15.26-30.86,17.15-39.9.32-1.56-.43-2.57-.55-4.01l1.92.97c1.72-5.3,3.81-10.63,8.07-14.47-3.95-1.34-2.29-3.34.98-1.48.33-.24,1.55-5.64,2.34-6.7,2.02-2.73,15.39-13.37,18.69-14.8,17.71-7.67,44.58,5.04,63.41,2.56l22.52,4.67c.21-.1.42-.21.64-.3ZM1012.9,502.99c-.64-.5-2.49,1.03-4.06.1-.84-.5-4.36-5.5-5.23-6.22-.26-.21-1.41.39-2.27-.24-1.44-1.06-2.54-2.94-4.02-4.06l-1.98,1.99-6.01-7.99-1.48,1.99v-4.98c-4.37,1.39-4.64-2.22-8.01-2.02l1.99-2.49c-1.58-3.26-4.55-1.32-4.87-1.56-.3-.22-.59-2.34-1.26-3.28-6.93-9.64-14.62-18.84-19.86-29.65l24.62,16.37c2.23,1.96,6.08,5.72,7.91,7.58,2.85,2.9,4.7,4.88,4.47,9.04l2.9-.93,2.13,4.42-2.03,1c2.87,2.27,4.98,2.19,6.78,6.26,1.19,2.69-1.55,4.32,3.96,5.51,1.32,6.07,8.74,7.68,10.24,13.73-3.27-.09-2.96-3.82-3.91-4.57ZM905.05,523.46c-1.07.5-2.8.22-3.99.76-1.96.9-.06,3.33-4.21,1.32v3.02s-3.53-.02-3.53-.02l.52,1.99c-4.36-1.9-4.93,2.07-9,1.47v3.53s-3.01,0-3.01,0c2.1-3.83-1.62-2.37-1.47.99l-3.86-.96-.67-3.02h-3c1.97,2.46-2.44,6.59-4.48,6.01-.47-.14-.32-1.63-1.01-1.79-4.44-1.08-3.57,3.24-6.51,2.77l1.02-1.98-5.59-.09c-1.41-.63-1.76,4.08-3.42,2.08-.66-.79.39-3.33,1.45-4.11,1.2-.88,2.33.26,3.23-.17.66-.32,3.72-3.55,4.57-3.99,2.43-1.28,5.98-1.52,8.25-3.7l-.5,2.97,2.92-.06c.05-4.72,7.09-6.82,10.07-3.93v-3.99s7.01-1,7.01-1l-.99,2.98h1.98c1.29-3.46,2.41-4.66,6.02-3l-.99-2.98c5.63,1.84,8.76-1.18,13.99-2l-1.99,1.98,4.99,1c-3.21-.15-6.09,3.12-7.79,3.92ZM948.52,526.27c-19.68,21.49-18.81,46.69-33.87,68.59-16.13,23.45-42.93,13.38-61.28,27.71-3.38,2.64-5.82,6.66-9.51,8.97,4.11-11.95,11.03-24.97,17.82-35.67,12.92-20.33,29.83-34.86,49.16-48.83l-4-1.49.49,2c-4.51-2.62-4.19,5.01-6.99,5.99l-1.07-2.07-3.38,1.19c1.25,3.09-.39,3.9-2.56,5.88l-1.08-2.07-3.42,1.09.6,4.03c-4.65.35-3.71,4.07-5.01,5.03-1.52,1.13-7.94-.24-5.6,5.92l-3.99.51,1,2.02-3.54.46c.96,4.31-1.02,2.55-3.02,4.95-2.84,3.41-3.48,5.4-6.45,8.52-.98,1.04-1.31,2.63-2.51,3.53-1.01-5.22,2.11-9.61,4.05-14.01.42-.95-.53-2.45-.31-2.81,1.79-2.86,8.32-8.96,9.88-12.62,1.37-3.23-2.55-3.02,4.5-4.49l.87-1.03c-1.38-4,2.17-4.41,5.54-4.45l1.09-4.47c5.26.91,4.28-4.88,8.91-3.58l-.02-2.52c4.87,1.46,9.03-.12,10.51-5,3.03-1.07,2.29,2.26,2.98,1.99,2.82-2.84,5.6-4.19,9.51-2.99l-1.01,3-2.98-1.02-1.52,8,18.02-12.98,1.98,1.99c1.35-4.45,4.09-3.43,6.01-6.99l2.48,1.99.17-3.84,7.35-4.13c1.81,1.09,1.37,2.39.18,3.69Z"></path><path class="cls-1" d="M93.93,122.6c-1.83-4.4.75-11.4-2.98-14l-1,3.99-6-31.99c3.8.1,3.92,5.32,5.45,8.04,2.39,4.24,7.13,10.03,8.59,14.4,1.95,5.83,1.28,14.03,3.02,20.98,1.05,4.21,2.63,10.81,5.92,13.57-.15-6.55-3.67-13.01-4.03-19.46-.31-5.61,1.34-21.94,2.12-27.95.33-2.5,4.93-16.8,6.11-18.89.8-1.42,1.01-2.19,2.83-1.22,3.12,1.65,8.96,15.87,9.04,20.01.26,14.22-13.53,23.94-15.01,34.08-1.98,13.51,11.03,29.04,19.43,38.44,30.76,34.41,67,66.29,103.6,94.37l16.89,11.59c-15.68-16.41-30.38-34.04-41.51-53.96-5.69-10.19-13.11-33.22-18.45-40.27-2.2-2.9-10.4-8.37-14.05-12.21-9.76-10.28-19.48-23.98-23.23-37.76-4.26-15.64-4.76-23.41,8.79-33.73,9.99-7.61,30.14-5.2,37.3,5.64,11.78,17.82-9.53,52.9-6.75,73.74,1.61,12.08,22.72,53.1,30.68,63.31.94,1.21,1.17,2.72,3.23,2.26-3.7-10.53-5.51-23.34-5.04-34.53.25-6.12,1.61-19.16,3.14-24.85,3.31-12.25,4.3,5.56,5.02,8.77,1.47,6.51,4.26,13.47,4.86,20.14,1.08,12.11-4.06,27.88-.46,38.45,5.7,16.7,44.25,49.06,60.77,55.21,4.02,1.5,8.24,3.61,9.47-1.91.57-2.58.38-4.54-.56-7s-10.02-18-11.81-20.18c-2.13-2.61-4.72-3.67-6.4-5.59-7.53-8.59-12.95-20.89-10.56-32.55,1.83-8.92,12.24-15.47,11.55-24.94l-1.91.6,3.9-10.59c2,4.47.07,9.58,1.56,13.95,2.84,8.37,16.29,17.32,18.21,28.77,2.17,12.92-8.83,29.08-6.31,41.32.31,1.53,3.34,9.5,5.53,7.93,4.45-9.06,17.35-15.55,27.46-13.93,8.82,1.41,35.09,22.53,40.97,30.02,6.04,7.69,10.33,18.57,13.08,27.91,1.63,5.52,4.56,25.01,7.52,27.47,43.54,22.95,90.06,40.86,137.95,52.51l-9.52-7.97c-11.26-18.86-33.67-20.88-47.5-34.49-2.85-2.81-7.79-7.64-5.98-11.53-1.3-.75-.82,3.98-2.48.98-6.34-11.41-9.66-28.73-5.53-41.36l-9.54-29.56c-.48-1,1.81-3.04,2.06-3.04.78-.02,7.36,10.52,9.46,12.52,13.43,12.73,32.79,16.72,42.84,35.15,10.1,18.53,2.12,39.26,10.79,57.2,5.32,11,21.15,22.8,32.17,27.83,6.56,3,19.42,5.36,24.58,8.45,1.42.85,1.45,2.43,1.82,2.69.62.45,2.59-.98,4.1-.69,15.98,3.03,34.45,13.79,50.25,17.79,2.15.54,1.28.13.99-.98-3.51-13.45-3.16-14.52,3.31-26.66,1.95-3.66,9.05-11.97,8.03-15.61-.67-2.39-8.77-9.65-10.83-12.24-10.8-13.59-14.23-27.46-22.59-39.4-2.57-3.67-6.84-5.74-9.43-8.57-4.8-5.24-19.02-25.97-12.77-32.25,2.89-2.91,21.5-.58,25.11,1.91,5.93,4.11,6.95,12.46,8.15,18.86,5.77-17.91-3.7-24.57-20.49-23.5,18.48-8.09,28.76,2.68,23.51,21.51-2.3,8.25-8.68,13.67-11.37,21.23,6.28,15.52,14.45,30.03,25.33,42.76l9.51,8.98c.83-5.39-2.9-9.48-4.28-14.21-4.05-13.96-4.78-35.39.79-48.77,1.45,18.7,11.23,36.57,5.5,55.45l2.03,1.11c8.42-5.01,17.07-8.15,26.95-5.58.8-.8-3.97-15.3-3.98-18.49-.03-7.32,5.34-25.31,9.19-31.8,3.13-5.28,9.87-12.94,16.27-13.72,5.68-.7,17.73.27,23.36,1.68,8.99,2.26,17.6,6.91,24.15,13.33,2.77-15.89,20.46-42.17,38.36-40.93,8.94.62,26.36,15.38,31.17,22.9,7.97,12.45,9.72,26.77,6.48,41.03,13.65-11.17,23.28,1.91,24.88,15.61,3.28,28.13-10.98,53.45-30.4,72.4-.85,1.38-.65,2.57,0,3.96.77,1.63,11.61,11.65,13.77,13.25,22.13,16.38,57.61,26.74,84.45,32.53,8.01,1.73,13.03,1.81,21.82,1.38.4-.02,2.6,4.39,6.97.87l.48,1.98c-3.48-.08-7,.16-10.48,0-27.31-1.28-56.3-5.73-83.88-9.11-13.05-1.6-28.39-5.31-41.13-5.86-2.88-.12-6.41-.74-8.55,1.42-15.1,14.28-29.65,33.57-47.03,44.96-8.42,5.52-19.39,11.11-29.41,7.6-2.22-3.43-2.88-7.64-3.4-11.65-.23-1.79,1.87-2.93-.58-4.34-12.43,7.71-40.62,11.97-52.03,1.02-6.7-6.43-18.88-28.76-19-37.95-.02-1.37,1.28-2.16,1.39-3.52.11-1.26-.81-2.53-.47-4.58.79-4.82,6.17-9.83,6.12-14.97-16.66,11.84-25.15,33.01-38.99,48-10.1,10.94-24.32,19.62-39.13,21.86-21.23,3.22-36.98-4.25-58.73,5.26-8,3.5-14.45,9.66-22.63,11.85l22.02-28.46c11.99-32.68,35.36-54.32,70.96-59.01,9.76-1.29,18.08,2.51,25.38,2.4,9.57-.14,24.05-6.51,35.19-6.8.27,0,1.63,3.32,4.42,1.39-8.59-3.11-15.24-11.35-22.76-15.24-6.61-3.41-39.53-14.94-45.91-14.9-14.08.09-23.42,13.2-34.5,16.95-3.37,1.14-13.17,2.57-16.53,2.39s-8.65-3.22-13.29-1.7l1.01,1.98-14,2c-.45-2.07,1.07-2.27,2.27-3.22,8.28-6.51,35.69-16.08,46.52-18.48,6.68-1.48,13.59-1.53,20.2-3.31,1.19-1.6-14.51-5.72-16.12-6.39-1.97-.82-1.87-2.36-2.02-2.41-.48-.17-2.33,1.01-4.06.64-6.92-1.5-13.94-4.68-20.78-6.33-35.5-8.56-73.07-9.52-109.54-9.44-5.72.01-10.27-1.23-16.71.2-6.37,1.41-9.91,8.05-11.95,14.05-5.45,16.06-.76,34.07-4.28,50.71-3.16,14.92-10.68,27.41-25.71,32.29-13.33,4.33-29.11,6.99-41.36-1.34-32.59,17.31-64.09,11.85-79.6-23.28-1.49-3.37-2.39-9.75-3.76-11.98-.84-1.36-7.81-4.59-9.97-6.28-6.21-4.86-12.21-12.86-13.09-20.9-.73-6.71,2.84-39.48,4.7-46.3,4.05-14.81,15.09-29.47,28.2-37.35-5.12-14.38-6.29-28.84,6.1-39.83-1.13-.96-7.31,3.78-9,4.49-7.13,3.01-14.21,3.66-21.63,5.37-3.15.73-6.24,2.44-8.94,3.07-4.53,1.07,2.75-5.63,3.65-6.36,17.68-14.37,31.49-16.87,53.29-19.7,1.08-.14,4.67-.39,4.61-1.87-25.95-7.68-52.47-11.88-79.37-14.77-9.58,11.6-24.26,27.41-41,19.65-10.57-4.9-8.38-16.6-5.1-25.88,5.11-14.46,24.33-6.35,34.17-2.18,13,5.51,16.01,7.11,30.83,9.16,15.99,2.22,29.31,3.87,45.31,7.68,6.55,1.56,19.19,7.22,25.17,5.87,1.03-.23,2.71-.58,1.99-2.03-30.99-18.82-59.91-41.17-88.45-63.53-17.85-13.99-48.91-44.71-70.5-49.47-11.1-2.45-20.98,10.89-32.59,12.42-16.47,2.17-30.87-10.37-40.92-21.91l-1,2.01-8.48-2.02c0-.98,4.38-2.68,4.81-2.76,4.49-.81,5.42.65,10.86-2.06,13.48-6.7,17.31-14.19,35.11-9.47,14.11,3.74,16.49,11.41,26.86,18.13,9.72,6.3,22.87,8.45,31.84,17.16,2.22-3.27-3.07-4.24-5.15-6.35-31.12-31.51-57.88-63.48-84.16-98.27-4.66-6.17-10.64-17.77-15.64-22.4-6.55-6.06-22.73-10.94-31.46-16.54C12.54,49.94,1.47,38.82.03,27.03c-.3-2.48,1.48-13.77,2.12-16.7.52-2.36,5.3-7.3,7.44-8.56C14.83-1.31,27.07.11,32.65,2.42c11.97,4.98,18.35,24.43,20.83,36.16,4.17,19.73.23,27.15,12.24,45.75,8.56,13.26,19.16,25.36,28.21,38.27ZM39.96,31.62C38.69,19.92,26.7,1.63,13.51,3.69c-15.47,2.41-4.1,21.68.63,29.23,8.84,14.11,22.56,25.44,36.79,33.69.57-.71-5.1-14.12-5.75-16.73-.56-2.25.19-4.69-.25-6.59-.18-.76-1.89-.63-2.02-1.33-.39-2.02,1.33-4.23,1.03-6.35l-2,.5v-5.49s-1.98,1.01-1.98,1.01ZM51.94,53.61c-2.8-17.16-4.51-42.89-23.99-48.98,6.49,6.49,11.33,13.06,14.86,21.63,3.32,8.07,3.98,16.57,6.86,24.14.48,1.27.59,2.94,2.27,3.22ZM24.3,52.26c-3.01-3.13-5.94-7.21-9.18-10.32L2.96,20.62c-2.03,9.68,6.97,22.12,13.97,28.51,2.6,2.37,8.75,7.62,12.01,6.99-1.06-1.8-3.43-2.59-4.64-3.85ZM109.93,117.6c1.77-3.75.05-7.84.45-11.04,1.19-9.51,8.65-19.49,3.55-28.94l-4.47,8.01c-3.39,8.3-1.71,19.9-.92,29.1.09,1.01-.06,3.16,1.4,2.87ZM120.7,88.42c.09-.19-.47-4.18-1.75-3.8l-2.91,8.72c1.81,2.33,2.53,2.73,1.9,6.27,4.71.48.64-8.54.93-10.4.1-.66,1.75-.63,1.83-.79ZM186.92,158.59c3.03-22,27.71-66.42-10.61-69.86-11.4-1.02-15.44,1.05-16.36,12.39-1.88,22.92,8.51,50.55,24.97,66.48l-.98-15.99,2.98,6.99ZM112.93,112.6c1.95-5.17,4.31-9.24,4-14.99-2.59,1.56-4.17,6.86-4.75,9.74-.22,1.07-1.18,5.28.75,5.25ZM167.92,150.6c-.9-3.04-3.09-4.86-4.47-8.02-3.51-8.02-6.3-20.13-6.92-28.85-.36-5.14,2.04-11.33-1.09-16.12-7.47,6.06-4.27,17.93-2.21,26.2,2.36,9.48,7.32,20.39,14.69,26.79ZM92.8,165.77c-3.82,1.89-7.6.05-11.76,1.42-2.55.84-4.87,1.45-4.11,4.4l-1.49-1.99-3.5,3.99c5.61-2.76,12.7,2.43,17.51-1.99,2.08,5,6.24.02,7.47-3.51l-3.73-.71-.39-1.61ZM100.72,168.92c-2.41-2.11-5.66,3.85-4.77,4.68,4.8-2.1,3.11,1.45,6.84.82l2.15-5.82-3.51,2.01-.7-1.69ZM74.72,175.92c-1.07-.57-14.9,1-13.77,2.67,9.61,5.47,19.31,17.69,30.97,18.61,2.74.21,3.2-1.12,5.51-1.6l-.5,2c3.07,2.13,19.51-11.78,24.01-12-.44-1.71-1.86-2.3-3.5-2.03-.71.11.03,3.17-2.49,2.04.02-2.62-.65-4.52-3.51-4.01.57,5.94-2.67-.97-3-.98l-2.48,1.98-1.53-2.99-3.49,2.98.41-2.97-3.4-1.03-2,4,.99-4.99-3.99,2v-3.01c-3.1.94-6.36.52-9.5.47-3.4-.06-6.45.06-8.73-1.14ZM228.92,237.59v-34.48s-4.98-21.51-4.98-21.51c-1.5,9.36-2.86,18.92-1.99,28.48.61,6.8,3.77,12.98,4.92,19.07.17.88-.58,11.9,2.06,8.43ZM296.91,274.59c.73-11.74,7.69-23.17,5.76-35.26-1.46-9.11-11.96-20.59-17.74-27.74-1.07,3.1-.24,6.83-.48,9.53-.66,7.45-1.08,14.8-.32,22.67l4.8,18.8,3.99-1.99-2.86,4.32c1.82,2.49,3.06,5.95,4.62,8.38.63.99-.1,1.78,2.24,1.29ZM278.94,235.56c-.15-.19,1.85-2.37,2.07-4.44.31-2.95-.82-5.68-1.09-8.53-5.17,3.39-7.01,14.95-4.95,20.29.41,1.06,1.88.66,1.93.75.38.57-1.67,1.35-1.54,3.02.42,5.44,6.66,13.23,10.56,16.94l-1.99-11.99-4.99,1.99c.93-2.82,5.86-2.59,3.48-6.01l-4.48,1.01c1.61-2.37,3.77-2.13,3.97-5.49l-3.97-.51,3.06-1.54c1.07-6.02-1.52-4.79-2.05-5.48ZM174.92,278.6c-6.25-1.74-18.93-.42-18.98,7.99l4.98-3.51,14-4.48ZM399.9,400.56c-1.16-1.96-2.92-3.43-4.02-5.46-4.89-8.95-5.26-29.62-7.27-40.73-3.29-18.26-9-40-22.68-53.31-5.3-5.15-28.2-22.44-34.58-23.4-13.71-2.06-26.72,9.22-27.34,22.83,37.24,10.23,49.7,50.85,70.92,78.57,6.46,8.44,14.45,18.53,24.98,21.51ZM168.57,282.92c-9.65,1.57-20.69,9.38-13.08,19.6,10.27,13.79,31.19-2.72,38.42-12.44,0-.91-12.02-6.69-13.93-7.06-1.66-.33-9.84-.36-11.41-.1ZM459.3,297.16c-.61-.62-2.52-4.51-2.39-1.1,6.34,18.23,12.58,36.72,22.7,53.25.71,1.16,1.72,1.26,2.25,2.01,2.23,3.19,3.16,8.58,8.03,7.26l-2.99,1.49,10.49,13.49,2.49-1.98c-3,6.48,5.9,8.65,6.02,14.01l2.98-1.02,1.51,4.01c2.17-2.26-.87-8.09-1.76-10.99-.5-1.62,1.36-3.39-1.73-3.02l2.1-2.43-2.11-6.06c2.66-.25,2.64-5.06.01-4.51l2.07-1.58c-1.73-3.85-.51-8.14-1.17-11.82-4.85-27.26-31.27-33.52-48.5-51ZM779.86,416.58l2.31,1.84c27.74-20.39,54.02-67.76,26.65-98.3-4.13-4.61-18.52-16.17-24.48-16.59-7.56-.54-17.2,6.67-22,12.05-18.83,21.11-21.93,61.23-8.88,85.89.75,1.41,6.36,9.96,6.96,10.09,1.06.23,2.19-1.52,3.21-1.8,3.66-1.01,9.5,3.44,12.21,5.82l-.99-3.99c3.51-.89,4.7,1.29,6.5,4,1.13,1.69-.47.82-1.5,1.01ZM384.9,394.56c-4.26-5.7-10.68-11-15-16.49-19.48-24.82-36.72-79.66-77.25-73.25-3.26.52-7.72,3.54-10.29,3.72-1.71.12-3.1-.94-5.47-.57s-13.92,7.25-16,9.09c-11.1,9.83-14.99,26.08-7.03,39.06,14.84-4.26,30.81-6.67,46.04-3.04,13.11,3.13,31.51,12.88,43.67,19.32,13.75,7.28,26.45,16.95,41.32,22.16ZM268.91,308.59l-23.54,5.94-21.44,12.04,22.97-5.51,22.01-12.47ZM589.03,312.72c-5.06,3.18,8.06,25.07,11.82,28.38,6.9,6.09,10.56,1.21,12.77-6.29,3-10.21,2.43-19.1-9.73-20.84l-14.86-1.25ZM466.27,329.25c-.58-.72-2.74-7.11-4.26-1.99-.18.61-.1,11.96.05,12.83.82,4.67,6.05,15.84,8.64,20.18,1.76,2.94,5.45,9.37,9.19,7.31-2.24,2.87,4.75,9.34,8,6.98l.02,3.03,3.74.31,4.24,3.68c1.59-4-1.36-5.58-1.66-6.32-.49-1.2-.14-2.56-.62-3.38-.38-.65-3.3-1.49-2.72-4.3l-2.98,1.02-1.02-2.52,2.01-.98c-6.44-4.18-7.46-15.03-14.99-16.51v-.98c5.72-.7-.02-3.25-.74-4.2-.45-.59-3.83-10.6-4.73-12.36-.53-1.03-1.62-1.11-2.16-1.79ZM745.85,431.57c-.07-9.42,9.8-9.49,12.66-16.5-1.9-5.61-6.27-9.57-8.83-14.82-5.96-12.2-7.44-27.82-6.86-41.23.16-3.73,2.42-11.66,1.56-14.37-1.72-5.43-15.68-11.49-21.07-13.02-5.08-1.44-10.14-1.05-14.91-3.11l2.47,3.04c-24.35-11.99-36.81,27.09-34.89,44.4,1.26,11.36,13.82,28.31,22.76,34.23,14.65,9.68,30.56,15.76,47.11,21.38ZM300.92,354.58c-9.69,1.82-19.84-2.4-30-1l9.99,1.98c-21.56-1.64-39.52,9.02-49.8,27.7-6.85,12.44-5.54,17.99-7.2,30.8-1.26,9.69-5.52,21.52-2.46,30.48,8.2,23.98,47.01,29.87,68.8,26.86,29.26-4.03,51.92-15.7,73.16-33.82,12.24-10.44,23.49-21.94,36.47-31.5-8.75-4.78-18.14-8.43-27-12.98-24.1-12.37-47.06-28.21-72.98-36.52l1.01-1.98ZM642.86,357.58l-2,1.49c.96,8.76.79,17.74,2.66,26.36.29,1.32.72,4.97,2.34,5.14,2.65-10.86-.3-22.36-3-32.99ZM504.89,408.58c-34.1-11-71.97-22.35-103.01-40.48-3.89-2.27-7.1-3.95-9.97-7.52,3.73,14.91-.41,40.92,20.5,42.98,28.39,2.8,57.54.18,85.71,5.28,2.05.37,7.49,3.88,6.77-.26ZM813.84,440.56c-3.65-22.17,18.94-31.92,24.52-51.97,1.77-6.35,2.76-14.19-1.07-19.96-2.91-4.39-9.11-6.09-12.9-2s-8.33,15.75-11.74,21.26c-5.11,8.23-12.34,17.99-19.28,24.72-2,1.94-8.79,5.76-9.34,7.66-.93,3.19-.56,7.05-2.18,10.3,11.36,3.83,20.73,17.67,24.01,29.01,2.01,2.05,4.18-6.9,4.53-8,.5-1.57,1.36-3.48,1.41-3.7.56-2.91.5-6.35.06-9.29l1.98,1.99ZM813.86,450.56c1.92.42,2.39-.98,3.4-2.09,16.15-17.76,27.81-40.17,26.58-64.9-3.43,2.96-3.63,8.92-5.49,13-4.61,10.13-14.11,17.75-18.23,26.77-3.72,8.15-4.73,18.43-6.26,27.22ZM678.57,393.84c-8.17-1.84-17.4-1.63-24.64,3.29-5,3.41-17.23,21.15-19.94,27.05-3.79,8.23-3.91,10.99-.9,19.65,2.92,8.38,13.01,17.01,21.08,19.91,1.99.71,4.03,1.31,6.11,1.68l1.58-1.86-1.99-.5c16.3-23.65,45.04-29.96,72.47-28.49,4.84.26,9.74,3.1,14.51.97,1.42-1.47-.09-1.81-1.49-1.98-25.83-3.16-50.91-19.33-66.8-39.73ZM400.9,409.58c-1.81-.26-2.92,1.27-4.29,2.2-11.66,7.86-30.7,24.49-37.24,36.75-2.17,4.06-3.49,9.28-5.6,13.4-7.36,14.35-14.71,29.02-27.24,39.64-1,.85-.73.64.42,1.46,12.62,9.03,43.4,2.72,52.93-8.99,19.89-24.42,1.42-60.25,21.02-84.46ZM763.57,412.72c-7.98,2.34-.59,18.18,6.72,6.79,3.69-5.74-2.2-8.12-6.72-6.79ZM776.53,417.71c-6.98.66-5.65,12.87-.16,12.91,4.63.03,5.92-13.45.16-12.91ZM759.71,422.72c-2.66-4.21-10.59,2.4-10.65,7.54,4.67,11.51,14.26-1.84,10.65-7.54ZM764.11,426.82c-2.77,2.79-.72,10.2,4.09,8.63,5.45-1.77,1.44-14.2-4.09-8.63ZM774.53,434.72c-4.91.4-7.19,9.77-.18,9.76s4.45-10.11.18-9.76ZM734.56,533.25c4.91-4.62,11.08-20.18,16.47-27.02,13.86-17.58,28.87-12.51,44.52-22.48,21.59-13.76,3.95-39.74-12.26-49.13-1.83-.71-1.95,2.45-2.15,3.72-1.3,8.47.95,11.73-6.3,18.72-4.72,4.55-7.43,7.14-12.01,11.99-13.93,14.73-33.17,21.08-39.29,42.7-2.7,9.52-.01,16.32.33,25.81,3.16-1.05,8.22-1.97,10.69-4.3ZM740.86,450.55c4.96-4.3-3.1-7.49.47-11.01,1.02-.61-.55-1.72-1.09-1.86-3.55-.9-13.92-1.26-17.93-1.16-29.19.69-55.79,15.06-67.61,42.37-4.2,9.7-3.77,18,.63,27.71,1.72,3.8,12.15,20.13,14.88,22.61,9.08,8.21,38.73,4.13,48.72-3.08,1.35-6.03.88-10.97,2.89-17.11,1.89-5.8,5.93-11.48,9.02-16.7l29.01-23.27c.42-2.25-.98-1.39-2.47-1.49-3.57-.24-8.63.95-11.49-1.52-5.11-4.42-1.3-14.69-2.08-15.43l-2.95-.05ZM564.88,437.58c-8.82-1.05-16.26,5.82-24.99,5l1.01,2.5-7.75.26-8.26,6.22c5.18,1.73,12.8-1.83,16.7-1.77,1.39.02,2.28,1.53,2.81,1.53.34,0,3.02-3.22,6.02-2.58l1.45,1.82c.25-4.32,4.66-3.09,5.05-3.39.88-.69.59-2.63,1.24-3.32s2.89-.42,3.71-1.79c1.55-2.6-4.44-.4-3.99-2.47,2.11-.53,6.04.62,6.99-2ZM759.56,437.76c-5.14,1.55-2.67,9.64,2.66,9.66,5.34-3.53,5.52-12.13-2.66-9.66ZM746.07,439.79c-6.74,6.87,4.47,15.84,7.33,6.82,2.15-6.77-1.1-8.1-7.33-6.82ZM263.93,504.52c15.11,7.42,29.02,9.79,45.25,3.8,27.55-10.17,38.98-38.86,49.72-63.75-30.35,26.39-76.07,37.82-114.97,26,2.15,8.7,6.23,18.57,12.01,25.47,2.18,2.6,5.43,6.51,8.98,6.55l-.99,1.93ZM767.1,447.81c-7.42,7.46,9.51,14.08,8.29.74-1.86-2.09-6.32-2.72-8.29-.74ZM763.72,457.43c1.17-10.16-8.61-7.82-4.81,1.1l4.81-1.1ZM754.57,463.25c7.14-5.86-4.15-14.34-8.22-7.7-2.94,4.79,2.98,12,8.22,7.7ZM824.84,468.56c1.52-1.46-6.84-7.62-8.09-8.39-.9-.55-3.51-2.58-3.9-.08-.25,1.66,11.15,9.29,11.99,8.48ZM758.86,465.56c3.93.68,5.31-1.42,6.97-4.5l-6.05-1.06-.92,5.56ZM887.84,496.57c-27.63-4.56-54.08-17.56-76.5-34-1.73-.53-3.56,15.65-3.96,17.02-.71,2.43-3.18,4.83-3.52,7.5-.26,2.06,3.28,2.17,4.59,2.35,23.2,3.23,46.63,5.93,69.89,9.11l9.49-1.99ZM646.87,467.57h-3.99s-.02,6.98-.02,6.98l-1.1-4.89-6.32-1.18-2.07,4.07.5-2.99h-4s.99,2.99.99,2.99l-5.98-2-.03,2.99h-.98s-3.01-1.98-3.01-1.98c-.48,1.51,3.84.68,1.98,2.99-.89,1.11-3.42-1.85-3.64-1.9-.9-.2-2.98.62-4.35-.09l-.57,2.95c-1.63.04-5.63-1.05-6.91-.7-.33.09-7.01,6.25-4.51.76l-5,1,2.99,1.98c-4.52,2.02-9.99,2.14-14.32,4.23-5.08,2.46-10.98,5.8-16.4,8.52-19.62,9.85-45.09,33.66-60.49,51.24-.79.9-1.48,1.82-1.78,3,7.63-1.96,15.05-7.18,22.74-8.75,13.92-2.84,29.71,1.5,43.75-.25,30.24-3.75,48.57-29.49,62.57-53.94l2.92.96c-1.11-5.16,3.05-5.07,5.07-7.47.88-1.05.65-2.78,1.09-3.35.1-.14,1.4.53,2.32-.14,8.41-6.14,3.59-6.67-2.46-2.05l.99-2.99ZM605.88,470.57c-3.94,1.58-11.13-.66-14.3,0-.83.17-.98,2.74-3.36,2.77-1.45.02-4.51-2.36-7.33-.78l1.99,1.98-4.98-1.99c-.19,5.26-2.98,3.56-6.93,4.88l-1.07-1.88c-.34,3.06-5.2,5.44-7.95,5.53-1.39.04-2.16-1.58-3.07-1.11-.75.38-5.67,7.27-6.13,7.42-.63.22-2.07-1.22-2.71-.75-.82.59-9.16,7.36-9.58,7.87-.37.44.45,1.93-.55,2.51-.82.48-2.52.27-2.88.68-.61.69.33,2.99-.27,3.7-.38.44-2.3.04-3.34,1.12-.43.44-5.04,8.46-5.93,10.12-1.81,3.39-2.9,7.43-4.58,10.91,2.05.26,3.23-1.72,4.53-2.97,3.25-3.12,9.98-11.26,12.69-12.82,1.01-.58,2.9.22,3.62-.38.2-.16.9-3.96,2.36-4.5,6.85-2.55,12.71-7.33,18.68-11.95,7.66-5.92,24.87-12.24,35.1-16.89,1.78-.81,4.83-1.96,6-3.46ZM805.84,475.56c-4.01,4.39-3.52,7.05-9.1,10.38-15.77,9.41-30.86,5.96-43.71,22.28-5.37,6.82-13.99,26.48-20.24,29.75-2.22,1.17-9.22.95-7.92,5.06.97,3.07,10.25.27,12.53-.45,17.05-5.34,44.55-33.28,56.96-47.02,5.12-5.67,9-12.76,11.47-20.01Z"></path><path class="cls-1" d="M389.9,402.58c-.3,1.84-5.11,1.07-6.49.98-4.1-.27-8.46-1.64-12.89-1.11l-7.62-1.87,26.99,2Z"></path><path class="cls-1" d="M393.9,408.58c-5.06,4.34-13.46,7.83-19.99,8.98l19.99-8.98Z"></path><path class="cls-1" d="M678.86,411.58l-3.22.72-17.77-3.72c7.17-.59,13.97,2.09,20.99,3Z"></path><path class="cls-1" d="M186.92,143.6l-1.03-10.53c1.63-9.92,1.64-19.98,2.04-29.96.05-1.22-.76-3.72.99-3.48.92,14.75-2.05,29.29-2,43.98Z"></path></g></g></svg> 