<?xml version="1.0" encoding="UTF-8"?> <!-- Generator: Adobe Illustrator 26.5.0, SVG Export Plug-In . SVG Version: 6.00 Build 0) --> <svg xmlns="http://www.w3.org/2000/svg" xmlns:xlink="http://www.w3.org/1999/xlink" id="Layer_1" x="0px" y="0px" viewBox="0 0 359.2 151.6" style="enable-background:new 0 0 359.2 151.6;" xml:space="preserve"> <style type="text/css"> .st0{fill:#E43E2B;} .st1{fill:#7C1912;} </style> <g> <path class="st0" d="M342.5,106.8c-1.9,6.3-4.1,12.5-6.7,18.5c-0.1,0-0.1,0-0.2-0.1c-10.2-2.8-20.7-4.1-31.3-4.5 c-6.1-0.2-12.2-0.2-18.3,0.1c-9,0.5-18,1.2-27,2.3c-11.1,1.3-22.1,3-33.1,4.8c-14.7,2.4-29.3,5.2-44,7.7c-11.5,1.9-23,3.9-34.6,5.5 c-9.4,1.3-18.8,2.2-28.2,3c-7,0.6-14.1,0.9-21.1,1.1c-11.9,0.3-23.7-0.4-35.5-1.9c-10-1.3-19.8-3.2-29.4-5.9 c-0.2,0-0.4-0.1-0.5-0.2c-7.2-13.6-12.5-28.2-15.8-43.6c9.4,5.7,19.1,10.9,29.1,15.4c16.3,7.3,33.1,12.8,50.5,16.6 c14.9,3.2,29.9,5.3,45.1,6c9.1,0.4,18.2,0.5,27.4,0.3c9.1-0.3,18.2-1,27.3-1.8c11.3-1,22.4-2.7,33.6-4.7 c16.2-2.9,32.2-6.7,48.2-10.6c15.4-3.8,30.9-7.4,46.9-8.3c2.5-0.1,5-0.3,7.4-0.2C335.6,106.3,339,106.6,342.5,106.8z"></path> <g> <g> <path class="st1" d="M71.9,19.3c-2.6-2.4-5.1-4.8-8.2-4.8c-3.8,0-6.7,1-9.8,11.2c-0.2,1-0.7,1.5-1.1,1.5c-0.7,0-0.6-1.2-0.3-2.6 c3-12.2,6.4-15.8,11.3-15.8c3.1,0,6.1,4.4,8.7,8.1c1.4-3,3.2-8.1,7.3-8.1c4.5,0,5.7,4.9,4.1,10.8C83,23.5,81.3,25,79.7,25 c-0.8,0-1.6-0.4-2.3-1.5l-6.2,24.8C79.1,36,85.7,33.2,89.9,33.2c5.7,0,7.6,3.4,3.7,18.8l-5.4,21.4c-0.3,1.2,0.7,1.8,1.3,1.8 c2.4,0,6.3-5.7,8.1-11.4c0.3-1,0.7-1.5,1.1-1.5c0.5,0,0.7,0.5,0.5,1.2c-2.5,9.7-10.1,17.2-14.9,17.2c-2.6,0-3.7-2.8-2.7-6.8 l4.9-19.5c3.4-13.9,3.7-16.5,0.3-16.5c-2.4,0-8,1.6-17.1,16.2l-4.4,17.6c-1.4,5.7-4,8.8-7.2,8.8c-3.1,0-5.2-2.6-4-7.6 c0.6-2.2,2.6-7.5,8.4-15.6L71.9,19.3z M61.4,61.6c-2,3.3-4.2,8.3-5,11.1c-0.8,2.9-0.8,4.3,0.2,4.3c1,0,2.1-4.9,3-8.7L61.4,61.6z M77.8,21.4c0.7,1.1,1.5,1.7,2.1,1.7c0.9,0,1.6-1.3,2.3-4.1c1.2-4.5,0.3-7.7-0.7-7.7c-1.1,0-2,3.2-3,7.4L77.8,21.4z"></path> <path class="st1" d="M115.9,51.5c3.3-4.8,8.4-10.2,12.9-10.2c5.9,0,6,5.7,4.4,12l-5.1,20.1c-0.3,1.2-0.3,1.8,0.3,1.8 c2.4,0,6.9-5.8,8.4-12c0.1-0.4,0.7-0.6,0.9-0.6c0.3,0,0.6,0.3,0.4,0.9c-2.4,9.7-9.8,17.2-14.6,17.2c-2.6,0-2.6-2.8-1.6-6.8 l4.8-19.2c1.2-4.8,1.5-8.3-1.9-8.3c-1.8,0-5,1-9.7,8.1l-9.6,38.2c-2.8,11.4-5.9,13.2-9.3,13.2c-2.1,0-3.3-2.1-2.3-6.1 c1-4.3,7.6-26.6,13.4-38.7l3.1-12.6c0.3-1.2,0.3-1.8-0.3-1.8c-2.4,0-6.8,5.8-8.4,12c-0.1,0.4-0.6,0.6-0.8,0.6 c-0.3,0-0.6-0.3-0.4-0.9c2.4-9.7,9.7-17.2,14.5-17.2c2.6,0,2.6,2.8,1.7,6.8L115.9,51.5z M98.2,98.1l7.4-29.5 c-2.7,6.2-9.9,28.8-10.2,31.1c-0.2,2.1-0.4,4.2,0.3,4.2C96.4,104,97.3,101.7,98.2,98.1z"></path> <path class="st1" d="M149.6,48.6c0.3-1.2,0.3-1.8-0.3-1.8c-2.4,0-6.8,5.8-8.4,12c-0.1,0.4-0.6,0.6-0.8,0.6 c-0.3,0-0.6-0.3-0.4-0.9c2.4-9.7,9.7-17.2,14.5-17.2c2.6,0,2.6,2.8,1.7,6.8L151,67.3c-1.2,4.8-1.4,8.3,2,8.3 c1.8,0,5.2-2.3,10-9.4l2.9-11.6c2.6-10.5,6.1-13.2,9.5-13.2c2.6,0,3.2,2.1,2.2,6.1c-1,4.3-4.3,10.6-7.7,15.2l-1.2,4.8 c-1.2,4.8-1.4,8.3,2,8.3c1.8,0,5.2-2.3,10-9.4l2.9-11.6c2.6-10.5,6.1-13.2,9.5-13.2c2.6,0,3.2,2.1,2.2,6.1 c-1,4.3-4.3,10.6-7.7,15.2l-2.7,10.9c-0.3,1.2-0.3,1.8,0.3,1.8c2.4,0,6.9-5.8,8.4-12c0.1-0.4,0.7-0.6,0.9-0.6 c0.3,0,0.6,0.3,0.4,0.9c-2.4,9.7-9.8,17.2-14.6,17.2c-2.6,0-2.6-2.8-1.6-6.8l1.1-4.6c-2.9,4.5-8.1,11.4-13.2,11.4 c-5.6,0-6-5.5-4.5-11.4c-2.9,4.5-8.1,11.4-13.2,11.4c-5.9,0-6-5.7-4.3-12L149.6,48.6z M173.4,49.2l-2.5,10 c3.3-5.2,4.8-9.3,5.4-11.6c0.4-1.8,0.9-4.2,0-4.2C175.1,43.3,174.3,45.5,173.4,49.2z M191.2,49.2l-2.5,10 c3.3-5.2,4.8-9.3,5.4-11.6c0.4-1.8,0.9-4.2,0-4.2C192.9,43.3,192.1,45.5,191.2,49.2z"></path> <path class="st1" d="M207.9,67.3c-1.2,4.8-1.4,8.3,2,8.3c1.8,0,4.9-1,9.7-8.1l11.2-45.3c2.9-11.4,6-13.2,9.4-13.2 c2.8,0,4,2.1,3,6.1c-1.1,4.3-9.2,32.7-16,45.8l-9.4,37.9c-0.3,1.2-0.3,1.8,0.3,1.8c2.4,0,6.8-5.8,8.4-12c0.1-0.4,0.6-0.6,0.8-0.6 c0.3,0,0.7,0.3,0.5,0.9c-2.4,9.7-9.8,17.2-14.6,17.2c-2.6,0-2.6-2.8-1.7-6.8l7.2-28.7c-3.3,4.8-8.4,10.2-12.9,10.2 c-5.9,0-6-5.7-4.3-12l5-20.1c0.3-1.2,0.3-1.8-0.3-1.8c-2.4,0-6.8,5.8-8.4,12c-0.1,0.4-0.6,0.6-0.8,0.6c-0.3,0-0.6-0.3-0.4-0.9 c2.4-9.7,9.7-17.2,14.5-17.2c2.6,0,2.6,2.8,1.7,6.8L207.9,67.3z M238.3,16.8l-9.2,36.6c2.8-6.2,11.9-35.9,12.5-38.2 c0.4-2.1,0.6-4.2-0.5-4.2C240,10.9,239.2,13.2,238.3,16.8z"></path> <path class="st1" d="M253,43.5c9-3.7,18.8-4.7,25.3-4.7c2.9,0,4.9,0.1,4.5,1.1c-0.1,0.4-0.5,0.8-1.1,0.8c-0.9,0-1.8,0-2.7,0 c-8.8,0-16.9,1.1-26.5,4.8l-5.5,21.7c-1.2,4.8-1.4,8.3,2,8.3c1.8,0,5.2-2.3,10-9.4l1.9-7.6c2.6-10.5,6.1-13.2,9.5-13.2 c2.3,0,3.3,1.8,2.3,5.8c-1.1,4.3-4.2,9.6-7.2,13.1l-2.3,9.2c-0.3,1.2-0.3,1.8,0.3,1.8c2.4,0,6.9-5.8,8.4-12 c0.1-0.4,0.7-0.6,0.9-0.6c0.3,0,0.6,0.3,0.4,0.9c-2.4,9.7-9.8,17.2-14.6,17.2c-2.6,0-2.6-2.8-1.6-6.8l1.1-4.6 c-2.9,4.5-8.1,11.4-13.2,11.4c-5.9,0-6-5.7-4.3-12l13-52.5c0.3-1.2,0.3-1.8-0.3-1.8c-2.4,0-6.9,5.8-8.4,12 c-0.1,0.4-0.7,0.6-0.9,0.6c-0.3,0-0.5-0.3-0.3-0.9c2.4-9.7,9.7-17.2,14.5-17.2c2.6,0,2.6,2.8,1.6,6.8L253,43.5z M268.4,53.2l-2,8 c3-4,4.3-7.6,5-9.9c0.4-1.8,0.8-3.9-0.1-3.9C270.1,47.3,269.3,49.6,268.4,53.2z"></path> <path class="st1" d="M290.2,51.5c3.3-4.8,8.4-10.2,12.9-10.2c5.9,0,6,5.7,4.4,12l-5.1,20.1c-0.3,1.2-0.3,1.8,0.3,1.8 c2.4,0,6.9-5.8,8.4-12c0.1-0.4,0.7-0.6,0.9-0.6c0.3,0,0.6,0.3,0.4,0.9c-2.4,9.7-9.8,17.2-14.6,17.2c-2.6,0-2.6-2.8-1.6-6.8 l4.8-19.2c1.2-4.8,1.5-8.3-1.9-8.3c-1.8,0-5,1-9.7,8.1l-9.6,38.2c-2.8,11.4-5.9,13.2-9.3,13.2c-2.1,0-3.3-2.1-2.3-6.1 c1-4.3,7.6-26.6,13.4-38.7l3.1-12.6c0.3-1.2,0.3-1.8-0.3-1.8c-2.4,0-6.8,5.8-8.4,12c-0.1,0.4-0.6,0.6-0.8,0.6 c-0.3,0-0.6-0.3-0.4-0.9c2.4-9.7,9.7-17.2,14.5-17.2c2.6,0,2.6,2.8,1.7,6.8L290.2,51.5z M272.6,98.1l7.4-29.5 c-2.7,6.2-9.9,28.8-10.2,31.1c-0.2,2.1-0.4,4.2,0.3,4.2C270.8,104,271.6,101.7,272.6,98.1z"></path> </g> </g> <g> <g> <path class="st0" d="M69.8,20.2c-2.6-2.4-5.1-4.8-8.2-4.8c-3.8,0-6.7,1-9.8,11.2c-0.2,1-0.7,1.5-1.1,1.5c-0.7,0-0.6-1.2-0.3-2.6 c3-12.2,6.4-15.8,11.3-15.8c3.1,0,6.1,4.4,8.7,8.1c1.4-3,3.2-8.1,7.3-8.1c4.5,0,5.7,4.9,4.1,10.8c-0.9,3.7-2.6,5.3-4.2,5.3 c-0.8,0-1.6-0.4-2.3-1.5l-6.2,24.8C77,36.9,83.6,34.1,87.8,34.1c5.7,0,7.6,3.4,3.7,18.8l-5.4,21.4c-0.3,1.2,0.7,1.8,1.3,1.8 c2.4,0,6.3-5.7,8.1-11.4c0.3-1,0.7-1.5,1.1-1.5c0.5,0,0.7,0.5,0.5,1.2c-2.5,9.7-10.1,17.2-14.9,17.2c-2.6,0-3.7-2.8-2.7-6.8 l4.9-19.5c3.4-13.9,3.7-16.5,0.3-16.5c-2.4,0-8,1.6-17.1,16.2l-4.4,17.6c-1.4,5.7-4,8.8-7.2,8.8s-5.2-2.6-4-7.6 c0.6-2.2,2.6-7.5,8.4-15.6L69.8,20.2z M59.3,62.5c-2,3.3-4.2,8.3-5,11.1c-0.8,2.9-0.8,4.3,0.2,4.3c1,0,2.1-4.9,3-8.7L59.3,62.5z M75.7,22.3c0.7,1.1,1.5,1.7,2.1,1.7c0.9,0,1.6-1.3,2.3-4.1c1.2-4.5,0.3-7.7-0.7-7.7c-1.1,0-2,3.2-3,7.4L75.7,22.3z"></path> <path class="st0" d="M113.8,52.4c3.3-4.8,8.4-10.2,12.9-10.2c5.9,0,6,5.7,4.4,12l-5.1,20.1c-0.3,1.2-0.3,1.8,0.3,1.8 c2.4,0,6.9-5.8,8.4-12c0.1-0.4,0.7-0.6,0.9-0.6c0.3,0,0.6,0.3,0.4,0.9c-2.4,9.7-9.8,17.2-14.6,17.2c-2.6,0-2.6-2.8-1.6-6.8 l4.8-19.2c1.2-4.8,1.5-8.3-1.9-8.3c-1.8,0-5,1-9.7,8.1l-9.6,38.2c-2.8,11.4-5.9,13.2-9.3,13.2c-2.1,0-3.3-2.1-2.3-6.1 c1-4.3,7.6-26.6,13.4-38.7l3.1-12.6c0.3-1.2,0.3-1.8-0.3-1.8c-2.4,0-6.8,5.8-8.4,12c-0.1,0.4-0.6,0.6-0.8,0.6 c-0.3,0-0.6-0.3-0.4-0.9c2.4-9.7,9.7-17.2,14.5-17.2c2.6,0,2.6,2.8,1.7,6.8L113.8,52.4z M96.1,99l7.4-29.5 c-2.7,6.2-9.9,28.8-10.2,31.1c-0.2,2.1-0.4,4.2,0.3,4.2C94.3,104.9,95.2,102.6,96.1,99z"></path> <path class="st0" d="M147.5,49.5c0.3-1.2,0.3-1.8-0.3-1.8c-2.4,0-6.8,5.8-8.4,12c-0.1,0.4-0.6,0.6-0.8,0.6 c-0.3,0-0.6-0.3-0.4-0.9c2.4-9.7,9.7-17.2,14.5-17.2c2.6,0,2.6,2.8,1.7,6.8l-4.9,19.2c-1.2,4.8-1.4,8.3,2,8.3 c1.8,0,5.2-2.3,10-9.4l2.9-11.6c2.6-10.5,6.1-13.2,9.5-13.2c2.6,0,3.2,2.1,2.2,6.1c-1,4.3-4.3,10.6-7.7,15.2l-1.2,4.8 c-1.2,4.8-1.4,8.3,2,8.3c1.8,0,5.2-2.3,10-9.4l2.9-11.6c2.6-10.5,6.1-13.2,9.5-13.2c2.6,0,3.2,2.1,2.2,6.1 c-1,4.3-4.3,10.6-7.7,15.2L183,74.3c-0.3,1.2-0.3,1.8,0.3,1.8c2.4,0,6.9-5.8,8.4-12c0.1-0.4,0.7-0.6,0.9-0.6 c0.3,0,0.6,0.3,0.4,0.9c-2.4,9.7-9.8,17.2-14.6,17.2c-2.6,0-2.6-2.8-1.6-6.8l1.1-4.6c-2.9,4.5-8.1,11.4-13.2,11.4 c-5.6,0-6-5.5-4.5-11.4c-2.9,4.5-8.1,11.4-13.2,11.4c-5.9,0-6-5.7-4.3-12L147.5,49.5z M171.3,50.1l-2.5,10 c3.3-5.2,4.8-9.3,5.4-11.6c0.4-1.8,0.9-4.2,0-4.2C173,44.2,172.2,46.4,171.3,50.1z M189.1,50.1l-2.5,10c3.3-5.2,4.8-9.3,5.4-11.6 c0.4-1.8,0.9-4.2,0-4.2C190.8,44.2,190,46.4,189.1,50.1z"></path> <path class="st0" d="M205.8,68.2c-1.2,4.8-1.4,8.3,2,8.3c1.8,0,4.9-1,9.7-8.1l11.2-45.3c2.9-11.4,6-13.2,9.4-13.2 c2.8,0,4,2.1,3,6.1c-1.1,4.3-9.2,32.7-16,45.8l-9.4,37.9c-0.3,1.2-0.3,1.8,0.3,1.8c2.4,0,6.8-5.8,8.4-12c0.1-0.4,0.6-0.6,0.8-0.6 c0.3,0,0.7,0.3,0.5,0.9c-2.4,9.7-9.8,17.2-14.6,17.2c-2.6,0-2.6-2.8-1.7-6.8l7.2-28.7c-3.3,4.8-8.4,10.2-12.9,10.2 c-5.9,0-6-5.7-4.3-12l5-20.1c0.3-1.2,0.3-1.8-0.3-1.8c-2.4,0-6.8,5.8-8.4,12c-0.1,0.4-0.6,0.6-0.8,0.6c-0.3,0-0.6-0.3-0.4-0.9 c2.4-9.7,9.7-17.2,14.5-17.2c2.6,0,2.6,2.8,1.7,6.8L205.8,68.2z M236.2,17.7L227,54.3c2.8-6.2,11.9-35.9,12.5-38.2 c0.4-2.1,0.6-4.2-0.5-4.2C237.9,11.8,237.1,14.1,236.2,17.7z"></path> <path class="st0" d="M250.9,44.4c9-3.7,18.8-4.7,25.3-4.7c2.9,0,4.9,0.1,4.5,1.1c-0.1,0.4-0.5,0.8-1.1,0.8c-0.9,0-1.8,0-2.7,0 c-8.8,0-16.9,1.1-26.5,4.8L245,68.2c-1.2,4.8-1.4,8.3,2,8.3c1.8,0,5.2-2.3,10-9.4l1.9-7.6c2.6-10.5,6.1-13.2,9.5-13.2 c2.3,0,3.3,1.8,2.3,5.8c-1.1,4.3-4.2,9.6-7.2,13.1l-2.3,9.2c-0.3,1.2-0.3,1.8,0.3,1.8c2.4,0,6.9-5.8,8.4-12 c0.1-0.4,0.7-0.6,0.9-0.6c0.3,0,0.6,0.3,0.4,0.9c-2.4,9.7-9.8,17.2-14.6,17.2c-2.6,0-2.6-2.8-1.6-6.8l1.1-4.6 c-2.9,4.5-8.1,11.4-13.2,11.4c-5.9,0-6-5.7-4.3-12l13-52.5c0.3-1.2,0.3-1.8-0.3-1.8c-2.4,0-6.9,5.8-8.4,12 c-0.1,0.4-0.7,0.6-0.9,0.6c-0.3,0-0.5-0.3-0.3-0.9c2.4-9.7,9.7-17.2,14.5-17.2c2.6,0,2.6,2.8,1.6,6.8L250.9,44.4z M266.3,54.1 l-2,8c3-4,4.3-7.6,5-9.9c0.4-1.8,0.8-3.9-0.1-3.9C268,48.2,267.2,50.5,266.3,54.1z"></path> <path class="st0" d="M288.1,52.4c3.3-4.8,8.4-10.2,12.9-10.2c5.9,0,6,5.7,4.4,12l-5.1,20.1c-0.3,1.2-0.3,1.8,0.3,1.8 c2.4,0,6.9-5.8,8.4-12c0.1-0.4,0.7-0.6,0.9-0.6c0.3,0,0.6,0.3,0.4,0.9c-2.4,9.7-9.8,17.2-14.6,17.2c-2.6,0-2.6-2.8-1.6-6.8 l4.8-19.2c1.2-4.8,1.5-8.3-1.9-8.3c-1.8,0-5,1-9.7,8.1l-9.6,38.2c-2.8,11.4-5.9,13.2-9.3,13.2c-2.1,0-3.3-2.1-2.3-6.1 c1-4.3,7.6-26.6,13.4-38.7l3.1-12.6c0.3-1.2,0.3-1.8-0.3-1.8c-2.4,0-6.8,5.8-8.4,12c-0.1,0.4-0.6,0.6-0.8,0.6 c-0.3,0-0.6-0.3-0.4-0.9c2.4-9.7,9.7-17.2,14.5-17.2c2.6,0,2.6,2.8,1.7,6.8L288.1,52.4z M270.5,99l7.4-29.5 c-2.7,6.2-9.9,28.8-10.2,31.1c-0.2,2.1-0.4,4.2,0.3,4.2C268.7,104.9,269.5,102.6,270.5,99z"></path> </g> </g> </g> </svg> 