<?xml version="1.0" encoding="UTF-8"?> <svg xmlns="http://www.w3.org/2000/svg" xmlns:xlink="http://www.w3.org/1999/xlink" id="Layer_2" data-name="Layer 2" viewBox="0 0 332.93 124.08"><defs><style> .cls-1 { fill: url(#linear-gradient); } </style><linearGradient id="linear-gradient" x1="0" y1="62.04" x2="332.93" y2="62.04" gradientUnits="userSpaceOnUse"><stop offset="0" stop-color="#967a5c"></stop><stop offset=".49" stop-color="#ecd0ae"></stop><stop offset="1" stop-color="#b99873"></stop></linearGradient></defs><g id="Layer_1-2" data-name="Layer 1"><path class="cls-1" d="M25.12,13.32c-3.36-3.1-6.46-6.07-10.47-6.07-4.91,0-8.53,1.29-12.54,14.35-.26,1.29-.9,1.94-1.42,1.94-.91,0-.78-1.55-.39-3.36C4.18,4.53,8.45,0,14.78,0,18.79,0,22.53,5.7,25.9,10.35,27.71,6.47,30.04,0,35.2,0c5.82,0,7.24,6.2,5.3,13.83-1.16,4.78-3.36,6.72-5.43,6.72-1.03,0-2.07-.52-2.97-1.94l-7.88,31.66c10.08-15.64,18.61-19.26,23.91-19.26,7.24,0,9.69,4.39,4.78,24.04l-6.85,27.4c-.39,1.55,.91,2.33,1.68,2.33,3.1,0,8.01-7.24,10.34-14.6,.39-1.29,.91-1.94,1.42-1.94,.65,0,.9,.65,.65,1.55-3.23,12.41-12.92,21.97-19,21.97-3.36,0-4.78-3.62-3.49-8.66l6.2-24.94c4.39-17.71,4.78-21.07,.39-21.07-3.1,0-10.21,2.07-21.84,20.68l-5.69,22.49c-1.81,7.24-5.17,11.24-9.18,11.24s-6.59-3.36-5.17-9.69c.78-2.84,3.36-9.56,10.73-19.9L25.12,13.32Zm-13.44,54.02c-2.58,4.26-5.43,10.6-6.33,14.22-1.03,3.75-1.03,5.56,.26,5.56s2.71-6.2,3.88-11.11l2.2-8.66h-.01ZM32.75,15.9c.9,1.42,1.94,2.2,2.71,2.2,1.16,0,2.07-1.68,2.97-5.3,1.55-5.82,.39-9.82-.9-9.82-1.42,0-2.58,4.14-3.88,9.43,0,0-.9,3.49-.9,3.49Zm48.59,38.52c4.26-6.07,10.73-13.05,16.54-13.05,7.5,0,7.62,7.24,5.69,15.38l-6.46,25.72c-.39,1.55-.39,2.33,.39,2.33,3.1,0,8.79-7.37,10.73-15.38,.13-.52,.91-.78,1.16-.78,.39,0,.78,.39,.52,1.16-3.1,12.41-12.54,21.97-18.61,21.97-3.36,0-3.36-3.62-2.07-8.66l6.07-24.56c1.55-6.07,1.94-10.6-2.46-10.6-2.33,0-6.33,1.29-12.41,10.34l-12.28,48.85c-3.62,14.6-7.5,16.93-11.89,16.93-2.71,0-4.26-2.71-2.97-7.75,1.29-5.56,9.69-33.99,17.19-49.5l4.01-16.16c.39-1.55,.39-2.33-.39-2.33-3.1,0-8.66,7.37-10.73,15.38-.13,.52-.78,.78-1.03,.78-.39,0-.78-.39-.52-1.16,3.1-12.41,12.41-21.97,18.48-21.97,3.36,0,3.36,3.62,2.2,8.66l-1.16,4.39h0Zm-22.62,59.59l9.43-37.74c-3.49,7.88-12.67,36.83-13.05,39.81-.26,2.71-.52,5.43,.39,5.43,1.03,0,2.07-2.84,3.23-7.5ZM124.51,50.67c.39-1.55,.39-2.33-.39-2.33-3.1,0-8.66,7.37-10.73,15.38-.13,.52-.78,.78-1.03,.78-.39,0-.78-.39-.52-1.16,3.1-12.41,12.41-21.97,18.48-21.97,3.36,0,3.36,3.62,2.2,8.66l-6.2,24.56c-1.55,6.07-1.81,10.6,2.58,10.6,2.33,0,6.59-2.97,12.79-12.02l3.75-14.86c3.36-13.44,7.75-16.93,12.15-16.93,3.36,0,4.14,2.71,2.84,7.75-1.29,5.56-5.56,13.57-9.82,19.39l-1.55,6.07c-1.55,6.07-1.81,10.6,2.58,10.6,2.33,0,6.59-2.97,12.79-12.02l3.75-14.86c3.36-13.44,7.75-16.93,12.15-16.93,3.36,0,4.14,2.71,2.84,7.75-1.29,5.56-5.56,13.57-9.82,19.39l-3.49,13.96c-.39,1.55-.39,2.33,.39,2.33,3.1,0,8.79-7.37,10.73-15.38,.13-.52,.9-.78,1.16-.78,.39,0,.78,.39,.52,1.16-3.1,12.41-12.54,21.97-18.61,21.97-3.36,0-3.36-3.62-2.07-8.66l1.42-5.94c-3.75,5.82-10.34,14.6-16.93,14.6-7.11,0-7.62-6.98-5.82-14.6-3.75,5.82-10.34,14.6-16.93,14.6-7.5,0-7.63-7.24-5.56-15.38l6.33-25.72h.02Zm30.37,.77l-3.23,12.79c4.26-6.59,6.07-11.89,6.85-14.86,.52-2.33,1.16-5.43,0-5.43-1.42,0-2.46,2.84-3.62,7.5h0Zm22.75,0l-3.23,12.79c4.27-6.59,6.07-11.89,6.85-14.86,.52-2.33,1.16-5.43,0-5.43-1.42,0-2.46,2.84-3.62,7.5h0Zm21.32,23.13c-1.55,6.07-1.81,10.6,2.58,10.6,2.33,0,6.2-1.29,12.41-10.34l14.35-57.9C232.04,2.34,235.92,0,240.31,0c3.62,0,5.17,2.71,3.88,7.75-1.42,5.56-11.76,41.75-20.42,58.55l-12.02,48.47c-.39,1.55-.39,2.33,.39,2.33,3.1,0,8.66-7.37,10.73-15.38,.13-.52,.78-.78,1.03-.78,.39,0,.9,.39,.65,1.16-3.1,12.41-12.54,21.97-18.61,21.97-3.36,0-3.36-3.62-2.2-8.66l9.18-36.7c-4.26,6.07-10.73,13.05-16.54,13.05-7.5,0-7.62-7.24-5.56-15.38l6.33-25.72c.39-1.55,.39-2.33-.39-2.33-3.1,0-8.66,7.37-10.73,15.38-.13,.52-.78,.78-1.03,.78-.39,0-.78-.39-.52-1.16,3.1-12.41,12.41-21.97,18.48-21.97,3.36,0,3.36,3.62,2.2,8.66l-6.2,24.56h0ZM237.85,10.09l-11.76,46.79c3.62-7.88,15.25-45.88,16.03-48.85,.52-2.71,.78-5.43-.65-5.43s-2.46,2.84-3.62,7.5h0Zm18.87,34.11c11.5-4.78,24.04-5.95,32.31-5.95,3.75,0,6.2,.13,5.82,1.42-.13,.52-.65,1.03-1.42,1.03h-3.49c-11.24,0-21.58,1.42-33.86,6.07l-6.98,27.79c-1.55,6.07-1.81,10.6,2.58,10.6,2.33,0,6.59-2.97,12.79-12.02l2.46-9.69c3.36-13.44,7.75-16.93,12.15-16.93,2.97,0,4.26,2.33,2.97,7.37-1.42,5.56-5.43,12.28-9.18,16.8l-2.97,11.76c-.39,1.55-.39,2.33,.39,2.33,3.1,0,8.79-7.37,10.73-15.38,.13-.52,.91-.78,1.16-.78,.39,0,.78,.39,.52,1.16-3.1,12.41-12.54,21.97-18.61,21.97-3.36,0-3.36-3.62-2.07-8.66l1.42-5.94c-3.75,5.82-10.34,14.6-16.93,14.6-7.5,0-7.63-7.24-5.56-15.38l16.67-67.08c.39-1.55,.39-2.33-.39-2.33-3.1,0-8.79,7.37-10.73,15.38-.13,.52-.91,.78-1.16,.78-.39,0-.65-.39-.39-1.16,3.1-12.41,12.41-21.97,18.48-21.97,3.36,0,3.36,3.62,2.07,8.66l-8.79,35.54h0Zm19.64,12.42l-2.58,10.21c3.88-5.17,5.56-9.69,6.33-12.67,.52-2.33,1.03-5.04-.13-5.04-1.42,0-2.46,2.84-3.62,7.5Zm27.92-2.2c4.26-6.07,10.73-13.05,16.54-13.05,7.5,0,7.62,7.24,5.69,15.38l-6.46,25.72c-.39,1.55-.39,2.33,.39,2.33,3.1,0,8.79-7.37,10.73-15.38,.13-.52,.91-.78,1.16-.78,.39,0,.78,.39,.52,1.16-3.1,12.41-12.54,21.97-18.61,21.97-3.36,0-3.36-3.62-2.07-8.66l6.07-24.56c1.55-6.07,1.94-10.6-2.46-10.6-2.33,0-6.33,1.29-12.41,10.34l-12.28,48.85c-3.62,14.6-7.5,16.93-11.89,16.93-2.71,0-4.26-2.71-2.97-7.75,1.29-5.56,9.69-33.99,17.19-49.5l4.01-16.16c.39-1.55,.39-2.33-.39-2.33-3.1,0-8.66,7.37-10.73,15.38-.13,.52-.78,.78-1.03,.78-.39,0-.78-.39-.52-1.16,3.1-12.41,12.41-21.97,18.48-21.97,3.36,0,3.36,3.62,2.2,8.66l-1.16,4.39h0Zm-22.62,59.59l9.43-37.74c-3.49,7.88-12.67,36.83-13.05,39.81-.26,2.71-.52,5.43,.39,5.43,1.03,0,2.07-2.84,3.23-7.5h0Z"></path></g></svg> 