<?xml version="1.0" encoding="UTF-8"?> <svg xmlns="http://www.w3.org/2000/svg" width="116" height="40" viewBox="0 0 116 40" fill="none"><path d="M27.8054 13.7438L25.1331 26.2375H21.9007L24.5733 13.7438H27.8054ZM41.4037 21.8111L43.1049 17.1195L44.0839 21.8111H41.4037ZM45.0112 26.2375H48L45.3889 13.7438H42.632C42.0107 13.7438 41.4869 14.104 41.2551 14.6596L36.4052 26.2375H39.7998L40.4736 24.3716H44.6198L45.0112 26.2375ZM36.5736 22.1587C36.5876 18.8614 32.0154 18.6788 32.046 17.2055C32.0559 16.7578 32.483 16.281 33.4165 16.159C33.8793 16.0995 35.1565 16.0511 36.6042 16.7182L37.1704 14.0678C36.3929 13.7865 35.3922 13.5156 34.1471 13.5156C30.9518 13.5156 28.7041 15.2129 28.6861 17.6453C28.6656 19.444 30.2917 20.4469 31.5144 21.046C32.7749 21.6583 33.1973 22.0508 33.1911 22.5979C33.1824 23.4362 32.186 23.8074 31.2581 23.8214C29.6322 23.8467 28.6897 23.3819 27.9386 23.0318L27.3519 25.7707C28.1083 26.1169 29.5021 26.4182 30.9453 26.4336C34.3424 26.4336 36.5634 24.7563 36.5736 22.1587ZM23.1868 13.7438L17.9498 26.2375H14.5336L11.9562 16.2666C11.8 15.6535 11.6637 15.4281 11.1885 15.169C10.4113 14.747 9.12823 14.3522 8 14.1066L8.07643 13.7438H13.5762C14.2768 13.7438 14.9071 14.21 15.0675 15.017L16.429 22.2472L19.7912 13.7438H23.1868Z" fill="#1434CB"></path><path d="M93.4079 10.2988H82.5918V29.7357H93.4079V10.2988Z" fill="#FF5F00"></path><path d="M83.2789 20.0176C83.2772 18.1456 83.7014 16.2979 84.5194 14.6141C85.3374 12.9304 86.5277 11.4548 88.0002 10.2991C86.1767 8.86575 83.9867 7.97437 81.6805 7.72685C79.3743 7.47932 77.045 7.88564 74.9588 8.89935C72.8726 9.91307 71.1137 11.4933 69.8831 13.4594C68.6526 15.4255 68 17.6981 68 20.0176C68 22.337 68.6526 24.6097 69.8831 26.5758C71.1137 28.5418 72.8726 30.1221 74.9588 31.1358C77.045 32.1495 79.3743 32.5558 81.6805 32.3083C83.9867 32.0608 86.1767 31.1694 88.0002 29.736C86.5277 28.5803 85.3374 27.1047 84.5194 25.421C83.7014 23.7372 83.2773 21.8895 83.2789 20.0176V20.0176Z" fill="#EB001B"></path><path d="M108 20.0176C108 22.337 107.347 24.6096 106.117 26.5757C104.886 28.5418 103.127 30.122 101.041 31.1357C98.9551 32.1495 96.6258 32.5558 94.3197 32.3083C92.0135 32.0608 89.8235 31.1694 88 29.736C89.4713 28.5791 90.6606 27.1033 91.4785 25.4198C92.2963 23.7364 92.7213 21.8892 92.7213 20.0176C92.7213 18.1459 92.2963 16.2988 91.4785 14.6153C90.6606 12.9318 89.4713 11.456 88 10.2991C89.8235 8.86575 92.0135 7.97437 94.3197 7.72685C96.6258 7.47932 98.9551 7.88565 101.041 8.89937C103.127 9.9131 104.886 11.4933 106.117 13.4594C107.347 15.4255 108 17.6981 108 20.0176V20.0176Z" fill="#F79E1B"></path><path d="M106.82 27.6771V27.2791H106.981V27.1981H106.572V27.2791H106.733V27.6771H106.82ZM107.614 27.6771V27.1973H107.489L107.344 27.5273L107.2 27.1973H107.075V27.6771H107.163V27.3152L107.299 27.6272H107.39L107.525 27.3144V27.6771H107.614Z" fill="#F79E1B"></path></svg> 