<?xml version="1.0" encoding="UTF-8"?> <svg xmlns="http://www.w3.org/2000/svg" id="Layer_1" data-name="Layer 1" viewBox="0 0 60 60"><defs><style> .cls-1 { fill: #fff; } .cls-2 { fill: none; } .cls-3 { fill: #fa8669; } </style></defs><path class="cls-2" d="M30,0h0c16.6,0,30,13.4,30,30s-13.4,30-30,30S0,46.6,0,30,13.4,0,30,0Z"></path><path class="cls-3" d="M30,2,30,0C13.4,0,0,13.4,0,30s13.4,30,30,30,30-13.4,30-30S46.6,0,30,0h0Z"></path><path class="cls-1" d="M28.5,35.4c0-1.1.1-2,.4-2.7s.7-1.4,1.1-2,.9-1.1,1.4-1.5c.5-.5,1-1,1.5-1.5.4-.5.8-1.1,1.1-1.8.3-.7.4-1.5.4-2.4s0-1.3-.3-1.9c-.2-.6-.5-1.1-.9-1.6-.4-.4-.9-.8-1.5-1s-1.3-.4-2.1-.4-1.5.1-2.1.4c-.6.2-1.1.6-1.6,1.1-.4.5-.7,1.1-1,1.8-.2.7-.3,1.5-.3,2.4h-1.8v-.8c0-1.2.3-2.2.7-3,.4-.8.9-1.5,1.5-2s1.3-.9,2.1-1.1c.8-.2,1.6-.4,2.5-.4s1.9.1,2.7.4c.8.3,1.6.7,2.1,1.2.6.5,1.1,1.2,1.5,2s.6,1.7.6,2.7-.2,2-.5,2.7c-.3.8-.7,1.5-1.2,2.1s-1,1.1-1.6,1.7c-.5.5-1.1,1-1.6,1.6-.5.5-.9,1.1-1.2,1.7s-.5,1.4-.5,2.3h-1.7.3ZM29.4,43.6c-.4,0-.8-.1-1.1-.4-.2-.3-.4-.6-.4-1s.1-.8.4-1c.2-.3.6-.4,1.1-.4s.8.1,1,.4c.3.3.4.6.4,1s0,.4-.1.6c0,.1-.2.3-.3.4,0,.1-.2.2-.4.3-.2,0-.4.1-.6.1Z"></path></svg> 