<?xml version="1.0" encoding="UTF-8"?> <svg xmlns="http://www.w3.org/2000/svg" id="Layer_2" version="1.1" viewBox="0 0 918 918.9"><defs><style> .st0 { fill: #fcfcfc; } .st1 { fill: #a8aec3; opacity: .6; stroke: #dee2ee; } .st1, .st2 { stroke-miterlimit: 10; stroke-width: 10px; } .st2 { fill: none; stroke: #eaedf4; } </style></defs><circle class="st1" cx="459" cy="459.5" r="453.9"></circle><circle class="st2" cx="459" cy="459.5" r="453.9"></circle><g id="Layer_1-2"><g><path class="st0" d="M693.8,549.1c-11.7-5.6-24.1-10.2-37.1-11.9v-196.1c-.3-5.4-3.8-9.2-9.1-9.7h-371.4c-3.8-.2-9.1,4.5-9.1,8.2v248l67.3-57.6c40.6-28.6,68.9,13.6,97.6,35.8.8.6,2.4,2.2,3.3,2l75-69.4c18.4-17.7,44.2-18.8,64-2.7,13.9,11.4,28.4,25.9,41.8,38.3,1.1,1,2.2,2,3,3.2-45.5,7-83.6,40.6-96.6,84.7-4.2,14.3-5.5,28.4-4.8,43.4h-254.4c-14.4,0-31.1-16.3-32.7-30.6-1-103.2-1-206.6,0-309.8,2.8-14.9,14.3-26.5,29-29.8,134.7-1.2,269.8-1.2,404.6,0,14.6,2.4,29.7,18.7,29.7,33.6v220.3h-.1Z"></path><path class="st0" d="M630.4,563.6c78.8-5.7,129.2,82.2,82.9,146.7-39.6,55.1-124,49.9-156.5-9.5-32.1-58.6,7.1-132.3,73.7-137.2h0ZM647.3,665.3h38.8c.2,0,3-1.3,3.4-1.5,4.7-3,5.5-9.4,2-13.7-.6-.7-3.8-3-4.4-3h-39.1l-.7-.7v-38.6c0-.5-1.8-3.6-2.2-4.2-4.5-5-13.6-3.6-15.8,2.9-.1.4-.7,3.1-.7,3.2v36.6l-.7.7h-38.6c-.2,0-2.3,1-2.7,1.3-4.7,3.1-5.4,10.3-1.5,14.3.6.7,3.9,2.7,4.7,2.7h38.8v35.9c0,8,7.6,13.7,14.8,8.9,1.3-.9,4-4.5,4-5.9v-38.8h0Z"></path><path class="st0" d="M374.3,368.7c30.2-3.1,51.5,29,36.3,55.6-13.4,23.4-47.2,24.7-62.6,2.6-15.9-22.9-1.4-55.3,26.3-58.2Z"></path></g></g></svg> 