<?xml version="1.0" encoding="UTF-8"?> <svg xmlns="http://www.w3.org/2000/svg" width="234" height="234" viewBox="0 0 234 234" fill="none"><path d="M117 21.9375C64.5831 21.9375 21.9375 64.5831 21.9375 117C21.9375 169.417 64.5831 212.062 117 212.062C169.417 212.062 212.062 169.417 212.062 117C212.062 64.5831 169.417 21.9375 117 21.9375ZM102.375 146.25C102.375 148.189 101.605 150.049 100.233 151.421C98.8619 152.792 97.0019 153.562 95.0625 153.562C93.1231 153.562 91.2631 152.792 89.8918 151.421C88.5204 150.049 87.75 148.189 87.75 146.25V87.75C87.75 85.8106 88.5204 83.9506 89.8918 82.5793C91.2631 81.2079 93.1231 80.4375 95.0625 80.4375C97.0019 80.4375 98.8619 81.2079 100.233 82.5793C101.605 83.9506 102.375 85.8106 102.375 87.75V146.25ZM146.25 146.25C146.25 148.189 145.48 150.049 144.108 151.421C142.737 152.792 140.877 153.562 138.938 153.562C136.998 153.562 135.138 152.792 133.767 151.421C132.395 150.049 131.625 148.189 131.625 146.25V87.75C131.625 85.8106 132.395 83.9506 133.767 82.5793C135.138 81.2079 136.998 80.4375 138.938 80.4375C140.877 80.4375 142.737 81.2079 144.108 82.5793C145.48 83.9506 146.25 85.8106 146.25 87.75V146.25Z" fill="white"></path></svg> 