<?xml version="1.0" encoding="UTF-8"?> <svg xmlns="http://www.w3.org/2000/svg" id="Layer_2" data-name="Layer 2" viewBox="0 0 1196.58 601.65"><defs><style> .cls-1 { fill: #282828; } </style></defs><g id="Layer_1-2" data-name="Layer 1"><g><path class="cls-1" d="M156.98,135.13c-.15-.69-.3-2.07.51-2.01l8.85.98,1.62,2.02.61-2.08c3.95.6,9.03,1.91,12.91,2.07,42.46,1.75,44.13-56.09,59.68-83.28,17.48-30.57,47.78-18.24,68.45-39.04,2.19-2.21,9.04-13.42,9.85-13.67.48-.15,2.51-.32,2.52.54-.4,2.72-1.13,5.42-1.98,8.02-3.21,9.81-14.65,28.31-15.83,36.22-.37,2.46,1,11.63.65,12.12-.25.35-2.19.25-2.7,1.75-.46,1.33.13,3.24-.4,4.62-6.14,16.15-22.79,36.84-39.05,43.93-5.12,2.23-11.68,1.66-12.55,1.98-.12.04-.18,1.48-.81,1.84-4.42,2.48-8.7-.86-11.78,1.07-1.77,1.12-.39,2.3-1.16,2.96-5.39,4.62-17.51,9.11-24.31,13.54-2.74,1.79-5.99,3.89-8.08,6.4,13.62-2.73,27.62-4.06,40.76-8.73,15.53-5.52,25.7-16.76,41.7-21.3,8.99-2.55,19.34-2.52,27.53-4.64,7.33-1.9,14.78-10.4,22.99-7.83l-41.51,24.49c-3.14.31,1.22-2.5-2.47-2-1.48-1.6,14.49-7.55,15.43-8.05,1.4-.73,3.01-.53,2.55-2.94l-16,1,1.01,1.98-17,3.02.48,1.96,3.51.53-3.01,2.48-1.99-3.98c-1.66-.42-.61,1.33-1.17,1.83-.31.28-6.06-.29-7.77,2.25l.94,2.92c-4.12-2.57-3.75.43-4.31.67-1.23.53-5.31,1.55-6.36,2.6-.72.72-.41,2.48-1.26,3.25-.54.49-5.24-.61-6.06.98,3.09,3.62,7.48-.35,10.52-.97s6.03-.11,9.95-1.83c.37-.16,1.94-3.71,3.5-1l1.03,3.28c-17.84,6.54-36.56,8.16-55.21,11.3l-8.79,2.7,26.48,2.09c39.65-2.92,79.45,5.28,119,6.91,2.59.11,5.22.24,7.79-.19,18.2-17.23,33.04-42.25,55.03-54.95,14.37-8.3,26.05-9.39,25.67,11.16.76.9,9.91-4.12,11.76-4.72,9.76-3.16,25.57-3.82,35.67-2.21,4.84.77,15.42,15.1,18.36,19.63,6.29,9.68,9.56,16.7,8.08,28.69l-4.4,13.6c13.5-9.12,20.19-26.31,29.67-39.32,13.1-17.97,26.61-29.5,49.44-32.54,15.64-2.09,30.46,1.21,45.36-4.64,10.06-3.95,18.39-10.88,27.5-16.48,2.99.58-1.07,5.52-1.65,6.33-4.3,5.92-18.08,20.25-20.28,25.71-5.4,13.4-7.29,24.32-18.52,35.48-2.14,2.13-5.63,5.59-7.35,7.14-2.56,2.29-5.23,5.2-8.67,3.35-.18.1.68,1.42.41,2.01-.82,1.73-13.69,7.55-16.4,8.49-6.45,2.25-21.63,4.72-28.54,4.55-10.37-.26-7.99-2.37-19.42.48-2.99.75-25.03,4.43-25.02,5.96,3.75,3.12,8.09,7.23,12.06,9.91,17.98,12.15,49.75,13.5,70.38,22.09,13.72-.99,20.85-14.15,31.59-20.94,11.79-7.45,24.86-8.11,37.2-12.79,6.24-2.36,10.52-7.29,16.72-8.77.21,1.54-.65,2.82-1.58,3.91-11.98,14.03-36.9,31.84-54.42,37.57l-16.97,4.51c18.37,3.43,35.7,8.58,54.5,10,23.39,1.77,51.45,1.42,75.02.05,4.32-.25,11.89-.58,15.72-1.28,12.75-2.33,15.02-15.23,15.72-26.27,1.2-18.93-4.3-30.13,2.07-49.93,3.22-10.02,8.47-18.02,18-22.99,3.95-2.06,24.5-8.1,28.6-8.19,6.48-.13,12.89,4.07,18.66,6.43,24.99-19.3,58.76-16.05,75.47,11.89,2.63,4.4,6.2,16.46,7.72,18.27,1.67,1.99,10.78,5.54,13.97,8.03,17.85,13.88,12.13,30.03,10.51,49.5-.38,4.59.39,9.29-.12,13.88-1.9,17.33-14.19,32.46-27.8,42.29-.39,1.57,2.73,6.11,3.38,8.34,4.15,14.08-2.33,28.61-12.99,37.94l-7.47,5.01c10.43-2.85,19.49-8.66,29.98-11.5,9.04-2.44,18.83-3.49,28.01-5.48-10.59,9.94-27.49,18.2-41.94,20.54-3.69.6-6.89.2-10.43.57-1.02.11-4.7.4-4.61,1.87,22.72,7.24,46.59,7.8,70.25,8.79,5.03-.44,7.85-8.14,11.22-11.79,8.02-8.69,22.86-15.97,33.53-7.51,3.6,2.85,5.23,6.29,5.01,10.97-.08,1.73-3.49,15.77-4.14,16.94-3.2,5.74-14.39,5.16-19.94,4.16-8.84-1.6-17.95-8.64-26.55-10.45-11.28-2.38-25.68-.84-37.77-2.22-14.57-1.67-33.51-9.27-46.2-9.87-3.63-.17-3.89.07-4.4,3.95,23.65,11.4,45.73,26.28,67.29,41.23s44.32,34.92,66.76,49.22c4.98,3.17,29.75,16.14,34.2,15.42,19.51-10.63,28.41-23.22,50.62-9.24,4.64,2.92,15.48,13.05,19.07,14.02,2.35.63,6.11-1.01,9.01.41.31,2.45-.02,1.58-1.39,2.09-3.92,1.44-11.35,1.1-13.56,2.43-1.56.94-2.03,3.11-3.69,4.32-12.99,9.43-28.26,11.81-42.56,3.86-4.97-2.76-6.84-6.05-10.87-9.13-8.13-6.2-20.38-10.53-29.92-15.08-1.65-.79-2.28-1.06-1.98.98l36.02,33.98c24.55,27.33,47.62,57.04,71.94,85.04,19.34,9.59,42.49,14.8,52.83,36.15,3.87,7.99.9,8.82-.59,16.05-.88,4.3.72,9.05-3.29,12.71-6.23,5.69-17.69,4.52-25.16,2.27-22.34-6.71-25.15-49.37-29.73-68.26l-40.55-51.44,13.31,41.68c.22,1.52-2.53,4.07-3.8,3.3-.24-7.98-7.64-15.16-10.76-22.73-4.85-11.73-2.99-24.88-10.74-35.25.03,5.86,2.96,11.57,3.49,17.51,1.33,14.95.35,37.78-5.2,51.76-.68,1.7-.91,1.98-2.3.74-2.21-1.98-7.23-10.68-8.35-13.65-6.59-17.47,3.69-22.72,8.65-37.08,6.56-18.99-13.47-37.8-25.71-49.81-20.54-20.14-42.37-39.29-65.16-56.86-15.7-12.1-31.94-23.55-48.41-34.59l-1.48.48c17.71,17.63,33.72,37.04,46.16,58.83,4.61,8.07,9.01,20.72,14.41,27.58,6.04,7.66,17.52,15.49,24.43,23.56,10.31,12.02,26.12,40.62,13.99,55.04-2.18,2.59-9.79,9.24-12.81,10.19-11.91,3.75-26.79-.68-31.7-12.72-9.5-23.29,10.57-50.44,3.79-72.78-11.15-36.76-52.47-85.45-83.98-107-4.3-2.94-30-18.93-33.26-16.14-.5,3.45-1.93,6.44-.5,9.92,1.05,2.56,9.95,16.29,12.04,18.95,8.29,10.55,17.02,13.07,19.15,28.84,2.31,17.02-7.43,19.94-8.73,32.75-.48,4.78,1.22,10.2-1.51,14.48-3.36-4.28-2.65-10.18-4.94-15.06-4.2-8.94-16.41-17.46-18.33-28.67-2.44-14.3,6.31-26.16,5.82-36.75-.1-2.27-4.83-13.58-7.12-10.88-7.23,8.53-17,15.43-29,12.92-6.34-1.33-26.95-15.8-32.41-20.58-17.28-15.13-22.05-37.71-28.77-58.72-43.02-20.78-91.44-37.91-138.55-46.92-2.84-.54-6.45-1.97-9.2-.81,12.93,4.47,21.54,17.95,32.68,24.32,6.56,3.75,15.85,5.89,22.47,9.53,15.28,8.39,26.67,28.72,26.92,46.13.06,4.25-2.26,9.78-1.86,12.79.9,6.74,9.15,21.16,11.32,28.69.48,1.68.61,3.3.46,5.03-5.28-3.93-7.53-10.57-12.51-14.98-9.74-8.63-25.34-13.4-36-22.99-20.81-18.74-12.17-35.92-19.44-58.55-6.25-19.45-22.52-29.38-41.07-35.92l-77.5-22.51c-1.49-.19-1.74-.21-1.37,1.37.7,2.91,2.5,5.9,2.81,9.22,1.06,11.18-8.55,22.85-12.75,32.73,9.97,9.76,20.25,20.39,27.67,32.32,3.49,5.61,6.12,13.64,10.18,18.82,4.48,5.72,12.4,9.94,17.22,16.77,3.06,4.34,10.22,18.58,5.17,22.62-3.71,2.97-5.97.88-8.45,1.54-4.84,1.29-8.99,4.39-14.43,4.63-15.95.71-17.96-13.12-13.38-25.43,1.67-4.51,10.18-16.69,9.7-19.89-.62-4.14-10.49-19.41-13.44-23.63-2.62-3.74-18.65-24.16-21.89-24.14-9.42,6.47-20.13,15.84-32.48,12.04,6.58,14.18,5.79,28.91,1.02,43.53-3.82,11.72-9.33,20.14-22.54,21.45-16.98,1.68-29.65-2.4-43.96-10.99-5.28,13.55-8.09,24.54-20.04,33.98s-18.49,9.48-31.14,2.19c-9.6-5.53-27.33-24.26-27.33-35.66v-18c0-.09,2.46-2.24-.51-1.52-4.84,1.17-7.14,5.37-13.86,1.89-18.59-9.63-10.57-49.73-3.17-64.91,4.9-10.05,13.04-18.04,18.52-27.48-10.38-13.48-27.93-23.28-43.71-29.23-40.35-15.21-102.31-18.75-145.91-19.86-2.07-.05-4.19.98-6.33.61l2-2.98c-1.26-.19-2.85.23-4-.01.12.56,1.38,1.74,1,1.99-3.19-1.15-9.16.33-11.37.06-.67-.08-.5-1.87-1.31-2.06-1.45-.34-5.66.96-7.75.85-3.86-.21-7.69-1.79-11.56-1.34,28.67,13.02,50.03,34.44,68.98,59-4.43,2.22-7-3.02-10.29-4.71-12.03-6.15-23.06-6.86-33.59-17.4-9.39-9.4-12.72-25.1-24.83-31.16s-34.43-6.59-48.72-7.28c-21.58-1.03-48.87-2.75-70.04-1.96-1.21.04-3.72-.75-3.48.99,32.49,6.02,60.03,20.08,86.89,38.6,39.11,26.96,69.75,61.96,92.07,103.9l-1.48.5c-13.02-19.22-39.78-18.43-60.51-23.49-37.47-9.15-62.28-28.84-71.48-67.5-2.27-9.56-2.93-27.2-8.04-34.95-6.65-10.07-31.2-11.15-41.45-17.05v-4l35.48,1.98c10.94-2.77,24.55-3.63,34.71-8.27,15.09-6.89,17.16-20.36,24.99-33,8.81-14.23,21.38-20.07,37.79-21.69l-3.01,2,1.02,1.99c-28.63.82-33.81,23.6-44.99,44.52l3.98-1.51.99,1.98,2.05-4.95c3.66,1.76,4.86-1.1,6.84-1.54,13.85-3.03,28.98-10.19,42.45-18.67,4.54-2.86,9.22-7.6,14.16-9.79l13.05-11.02-1.53-4,6-1.02-.48-1.97c-2.02,1.39-4.54,1.26-6.75,2.06-.64.23-.67,1.58-1.53,1.85-9.69,3-21.17,2.41-31.24,2.07v-2.99c4.28.44,9.45-.59,13.57-.08,1.94.24,1.48,1.98,1.94,2.1,2.92.72,2.16-1.7,3.2-1.98,5.88-1.57,13.99-1.56,20.11-3.73,6.02-2.13,9.41-8.66,16.18-7.3-3.87,5.29-11.44,8.04-14.02,13.99l-2.97-2c-.08,7.12-.92,4.66-3.73,5.69-2.08.76-5.42,13.25-6.87,16.21-3.04,6.19-7.27,10.18-11.89,15.12l-14.01,9.97-.6-3.51c11.63-7.02,21.68-14.55,26.41-27.67.35-.96,1.42-3.23.2-3.8-3.25,3.15-7.02,5.68-10.57,8.45-11.26,8.79-25.61,16.98-40.38,22.6-1.34.51-8.18,1.56-8.53,1.97l.02,2.91,11.42,2.14.96-1.99c6.64,2.76,13.28-1.61,19.58-3.08-1.86,5.34-14.18,7.66-19.46,8.02-7.96.55-14.25-2.01-21.89-2.68l-35.64,11.15c11.75,2.06,23.68.9,35.52,1.56,4.63.26,8.61,1.4,13.04,1.94,2.45.3,6.3-2.19,6.44,1.97l1.98.02.03-2.97c14.46,3.04,28.58.9,42.97,3.97ZM284.53,67.74c13.16-16.16,22.63-36.08,29.42-55.59-16.51,24.87-51.99,13.78-68.39,39.09-3.85,5.94-12.55,29.46-13.4,36.63-.16,1.37.42,2.1.81,3.27l-2.9.07-2.1,7.93,1.98.99-3.99,2.52,2,.99c-1.83,2.33-2.56,4.48-6,4.52l1.99,3.47-6.99,6.02,1.99.99-4.99,5.5c.67.64,5.37-3.76,6.24-4.28,1.39-.82,4.12-.88,5.15-1.62,1.16-.84.36-2.78.6-3.11.11-.15,1.72,1.12,3.68.31,6.25-2.57,15.78-13.2,21.39-17.74,11.72-9.47,23.62-17.84,33.49-29.96ZM302.96,47.15l-14.14,20.34c-4.32,1.75-4.72,6.74-6.8,8.94-1.93,2.04-7.64,2.84-6.06,7.71l-4.04-.61c-1.07,5.49-3.71,3.13-6.95,6.11l1.99,1.48c-2.58,1.63-8.38,3.43-10.39,5.11-1.65,1.39-1.51,3.26-2.66,4.34-2.98,2.77-7.21,4.62-9.93,7.55,3.95.46,7.15-3.09,9.99.01l.11-2.87c2.61-.21,4.79.08,4.91-3.13l1.48,3.99c3.62-1.54,2.2-4.28,6.01-5.99l.99,2c1.72-.6,3.24-3.36,4.21-4,3.12-2.08,4.1-1.81,7.25-5.55,4.9-5.82,10.87-11.92,14.89-19.1,4.44-7.93,7.14-17.48,9.15-26.33ZM633.27,106.48c6.68-6.57,14.23-14.14,20.16-21.33.99-1.2,8.18-10.28,7.48-11.01l-10,5.02,1.02,1.97c-5.21-1.48-4.63,1.84-7.25,3.24-19.97,10.7-46.18.58-68.64,11.37-26.69,12.81-33.54,42.16-51.07,60.63-2.31,2.43-6.25,2.87-8.02,5.75,7.51.25,14.49-1.97,21.74-3.75,3.17-.77,13.68-1.9,15.77-4.23,1.97-2.19-.32-1.6-.85-2.03-1.08-.87.34-1.79.85-1.98,2.76-1.02.72,4.32,1.97,3.98l24.25-9.7c19.2-9.5,36.93-22.53,52.6-37.94ZM440.94,95.14c1.21-10.07-13.57-1.89-17.91.58-21.53,12.25-34.51,35.12-52.07,51.92l-3.99,9.49c12.04-12.43,34.12-12.67,44.96-25.52,8.16-9.68,14.03-34.01,26.02-37.04,1.19-.3,1.94.24,2.99.57ZM412.6,161.78c10.58-10.42,22.17-15.29,28.52-29.97,4.9-11.31,5.34-24.35.33-35.65-12.83,5.31-15.83,20.83-23.09,31.89-2.25,3.43-5.74,8.63-8.92,11.08-9.64,7.43-40.33,12.98-44.04,24.95-4.52,14.58,11.07,33.84,23.54,40.05,1.3-3.53.42-8.01,1.25-11.26,2.11-8.27,16.16-24.92,22.41-31.08ZM500.28,176.47c12.61-13.24,22.47-28.72,15.71-47.9-1.56-4.42-14.34-21.91-18.02-24.98-9.64-8.03-38.64-2.75-48.82,4.74,1.05,27.47-18.26,42.59-37.2,58.3,5.31,2.2,13.65,2.34,16.24,8.75,1.57,3.89.94,21.94,1.75,22.75,23.59,1.22,49.12-1.91,67.5-18.01,1.4-1.23,1.81-2.57,2.84-3.65ZM924.89,137.12c-2.09-13.26-12.02-26.58-24.31-32.18-32.35-14.73-61.7,6.14-75.2,35.16l-12.47,29.02c6.96-4.34,12.72-10.43,19.66-14.82,19.11-12.08,49.24-20.17,71.8-19.16,2.79.12,19.73,2.77,20.51,1.98ZM626.27,130.48c6.39-6.88,11.18-13.94,14.66-22.83.66-1.69,2.3-4.84,1.49-6.51-5.39,4.89-10.06,10.68-15.49,15.5-11.71,10.39-26.56,20.38-39.72,28.28-3.16,1.89-8.71,2.96-12.3,4.22l1.01,2.98c-4.05.06-9.4-1-11.98,2.99,3.09,2.37,9.23,1.56,13.26.79,2.1-.4,7.9-1.89,8.24-3.78l2.49.02-1.01,1.98,5.02-.48-3.02-2.51c3.19-1.25,7.48-.41,10.3-1.04.69-.15.64-1.58,1.48-1.88,11.77-4.16,17.23-8.76,25.56-17.74ZM777.91,204.12c1.73.45,2-.72,3-1.49,7.67-5.88,25.98-26.35,30.18-34.82,8.08-16.29,10.66-28.9,22-45,1.79-2.54,9.31-10.19,8.76-12.06-.4-1.35-6.78-4.28-8.5-4.56-6.17-.99-26.87,4.25-32.82,7.06-23.87,11.24-18.66,45.7-17.94,67.24l-4.68,23.62ZM940.88,234.12h-39c-.22-1.76,2.26-.95,3.49-1,7.99-.33,16.06.35,24.05.04,4.24-.16,7.78-1.79,12.46-.47,1.44-.9,7.3-14.67,7.88-17.18,2.18-9.29.94-19.52,1.42-28.76.1-1.94,1.6-4.15,1.73-7.08.73-16.6-2.84-26.2-18.02-34.05-28.13-14.55-71.11-5.61-97.68,9.35-15.49,8.72-27.4,21.9-39.31,33.68-8.01,7.92-14.79,16.86-25.01,21.98l49.02,21c1.02,4.99,2.91,2.95,6.51,4.46,21.4,8.98,41.53,23.42,65.99,22.08,17.73-.97,36.61-8.73,46.45-24.04ZM359.94,178.12c2.88-4.38.78-9.87,1.44-14.05.53-3.36,3.84-7.12,4.18-10.88l-1.26-1.92-77.86-7.25-2.48,2.61c26.72,6.81,53.43,15.11,75.97,31.49ZM144.55,147.58c-.68-.37-3.01-1.75-3.58-.94-.39,4.77,5.39,3.02,3.44,7.52l5.57.98c.95,4.19-3.89-.01-5,1l1.01,5.99,2.99-1.99c.29.3-1.15,1.68-.56,2.95,2.69,5.85,12.46,12.97,18.33,15.77,5.13,2.45,11.84,4.03,17.23,6.26-7.92-10.05-16.7-19.79-26.52-28.01-2.82-2.36-9.61-7.73-12.91-9.53ZM57.69,155.42c-1.25-1.35-4.73-2.4-6.21-4.1l-2.47,2.3,3.97,1.51-2.97,2.46c2.26,2.31,4.41,13.13,7.71,7.76,1.16-1.89.54-3.64,4.27-3.24-2.02-1.59-3.03-5.33-4.3-6.69ZM72.99,160.14c-1.24-.78-4.95,3.51-5.02,4.98-2.66-3.86-5.67.24-5.97,0-.18-.14-.24-3.94-2.78-.82-.16.2.59,1.57-.12,2.37-.87.98-3.09,1.24-3.16,2.04-.09.94,2.14,5.73,2.75,7.18,2.41,5.69,5.49,13.66,9.13,19.91,24.88,42.63,61.04,31.3,93.49,55.49,3.74,2.79,6.23,7.05,10.66,8.83l-21.03-30.45c-2.28-3.82-5.83-6.09-8.63-8.87-.99-.98-.19-4.38-4.31-3.72,2.69-4.66-3.39-4.61-4.74-6.23-.58-.69-.39-2.41-1.24-3.25-2.54-2.49-7.66-7.92-11.02-5.47,2.56-3.99-6.31-11.31-9.45-13.05-2.14-1.18-4.93-.69-5.41-1.1-.94-.81.26-5.5-6.14-3.86l1.99-2.48-3.01-3.5-2.97,1.99c.83-6.1-6.51-4.73-6.91-5.04-.36-.27-.42-2.59-1.38-3.69-1.16-1.33-4.56-2.04-6.24-3.25-1.14-.82-1.45-2.83-2.52-3.54-1.14-.76-7.89.74-5.96-4.48ZM73.41,207.7c-11.19-13.38-15.95-27.86-22.93-43.56-2.18-.4-1.52.89-1.4,2.39,1.27,15.49,9.35,39.79,18.94,52.06,24.55,31.43,62.46,31.04,97.96,40.51-17.91-20.6-48-20.3-70.66-32.81-8.37-4.62-15.81-11.3-21.91-18.59ZM528.24,173.81c-.65-.5-.92-2.04-1.76-2.68-4.17-3.16-9.89-3.88-14.92-4.94-2.5,4.7-4.73,9.63-8.57,13.47-21.26,21.22-44.79,22.43-72.98,19.9-1.34-.12-2.38-1.46-2.04,1.05,1.48,3.49,12.63,4.05,16.75,5.25,12.86,3.75,28.68,11.47,39.15,19.84,2.98,2.38,11.69,12.59,13.79,13.21,17.54,5.15,32.18-13.33,38.47-27.12,6.27-13.75,7.31-18.62-1.05-31.32-.83-1.26-.74-3.29-1.39-4.09-.76-.93-3.93-1.41-5.44-2.57ZM675.91,168.11v-1.98c-3.44,3.33-6.98.12-10.31,1.99-1.24.7.43,2.97-4.08.94-1.55,3.9-7.93,1.33-10.96,3.04-1.15.65-.15,2.43-1.3,3.07-1.51.84-4.96.44-6.65,1.17s-1.78,2.65-3.43,3.65c-1.9,1.16-5.68-.69-5.29,3.13l3,.99-6.98,1.53c-.76,2.08,2.88,1.32,3.85,1.26,1.29-.07,2.55.33,3.66-.76l.47,1.97c-.54.48-5.71-.45-7.35,0-.95.26-.58,1.94-.67,2-.22.14-3.09-2.71-4.98-.98l2.99,2.98c-3.41-.43-6.42.26-9,2.51l3,1.49-6.99,2c3.33-.17,7.29.72,10.32-.98,3.6-2.03,1.17-.58,4.72-1.44,14.74-3.59,32.63-16.13,43.48-26.59.62-.6,1.62-.86,2.47-.99ZM413.42,169.53c-5.83.31-8.19,10.72-.94,10.57,3.51-.07,9.16-11,.94-10.57ZM357.95,182.12c2.8-3.68-6.11-5.52-7.27-6.22-2.59-1.56-4.35-4.84-7.72-4.77,2.8,2.97,8.31,9.07,11.49,11.09.98.62,3.2.29,3.5-.1ZM425.7,174.39c-3.64-4.4-11.41,5.97-4.75,9.23s6.81-4.8,4.75-9.23ZM407.95,179.14c-7.81-4.66-14.57,3.76-5.64,7.91,1.58-.76,6.69-6.49,5.64-7.91ZM341.26,274.8c10.91,9.93,17.04-14.46,20.16-20.71,7.43-14.86,17.61-26.13,29.38-37.61-2.41-2.7-2.45-9.22-3.75-10.95-1.1-1.47-4.03-1.51-5.48-2.51s-1.89-2.78-3.12-3.88c-5.95-5.31-10.3-10.37-15-16.98-6.37,6.4-3.73,13.82-4.51,21.46-1.93,18.64-8.74,21.15-16.79,35.21-5.38,9.39-10.1,27.61-.89,35.99ZM415.89,183.16c-4.72-.55-7.25,3.68-6.93,7.95,6.15.41,9.89-1.55,6.93-7.95ZM420.24,195.81c4.68,3.8,9-.9,7.53-5.96-2.38-8.19-13.95.75-7.53,5.96ZM404.94,190.13c-4.54-.63-6.73,1.49-10.98-2.01.16,3.35-3.11,5.67-1.53,8.98,2.74,5.73,13.86-5.62,12.51-6.97ZM332.95,259.11c1.41-5.56,1.55-11.3,3.82-16.68,3.81-9.04,12.94-16.99,16.23-26.77,2.55-7.6,2.97-16.6,2.95-24.54-15.1,15.79-23.13,36.88-25.02,58.54l2.02,9.44ZM411.6,193.34c-3.93.38-6.78,6.04-3.07,8.7,7.63,5.47,10.62-9.42,3.07-8.7ZM420.67,200.3c-3.23.95-7.32,7.54-1.76,9.38,9.46,3.12,10.97-12.09,1.76-9.38ZM397.7,212.87c4.9-4.93-4.92-17.03-6.71-6.18-.86,5.21,2.72,10.19,6.71,6.18ZM404.61,204.21c-6.95,1.99,1.46,16.26,5.59,6.63,1.71-4-2.54-7.5-5.59-6.63ZM422.13,213.31c-.57.91-.03,3.31-.62,4.85-.86,2.26-4.83,5.12-4.41,7.31,10.09,9.66,15.74,26.37,16.83,40.16,1.4,17.8-5.15,28.43,16.03,35.97,9.21,3.28,29.4,4.76,37.34-1.63,7.46-6.01,12.09-24.05,12.63-33.36,1.16-20-8.1-31.54-23.67-42.3-9.7-6.7-33.23-18.77-44.83-18.28-2.98.13-3.05,1.36-4.47,3.6l18.99,9.48c-4.56-.98-20.33-11.37-23.81-5.8ZM785.9,255.1c-3.49-8.51-5.94-34.88-14.76-38.73-.48-.21-7.29-2.12-7.69-2.13-27.06-.99-54.72,1.56-82.03-.14-4.69-.29-9.64-2.49-14.51-1.97l72.51,22.97,46.47,20.01ZM416.65,221.81c6.68-5.48-4.85-13.89-7.29-3.69-1.17,4.88,3.91,6.46,7.29,3.69ZM400.45,214.46c-4.47,0-6.47,6.88-1.48,9.14,8.73,3.94,7.96-9.15,1.48-9.14ZM876.79,312.2c-10.76-1.44-18.28-5.12-26.42-12.07-25.79-22-37.22-57.96-64.14-77.85-1.31-.97-7.02-5.18-8.33-4.16,8.81,15.41,8.65,34.76,13.49,52,8.21,29.26,22.36,50.19,50.47,63.52,15.57,7.38,34.77-4.49,34.93-21.44ZM393.9,220.16c-2.16-1.47-8.26,5.66-9.97,7.43-28.92,29.91-43.48,78.27.11,102.93,8.12,4.59,11.68,6.18,20.6,1.76,30.45-15.1,35.48-80.38,12.71-102.06-9.59-9.13-20.44,3.53-23.44-10.06ZM923.87,254.11c-9.94,3.05-23.29,7.73-33.64,7.93-19.87.38-62.11-21.7-81.34-30.59-5.84-2.7-11.96-6.84-17.99-9.32,6.27,6.15,12.84,12.25,18.39,19.09s12.59,15.77,14.61,23.89l1.84-.86c13.76,21.35,32.49,48.86,62.19,43.4,3.87-.71,14.97-4.49,18.94-6.06,18.44-7.28,26.88-30.01,17-47.48ZM673.92,250.11c.46-1.24,2.4-2.16,1.99-3.97-4.94-1.16-4.32-7.75-10.98-6.02l1.5,3.99,1.49-1.99,3,3-4.99,1.98c2.46-.48,4.35,4.94,5.49,4.96.3,0,1.62-1.67,2.5-1.94-1.19,3.21-1.27,4.31,1,6.99l-3.48-1.65c-.85.64-3.05,1.37-3.3,2.17-1.49,4.67,3.45,25.48,6.37,30.41,10.77,18.2,31.77,21.44,44.8,34.19,1.71,1.68,2.59,4.8,4.6,5.88-5.86-21.57-17.58-43.65-31.01-61.5-1.91-2.53-4.86-6.53-6.98-8.98s-6.24-5.65-8.64-8.27c-1.16,0-2.26.43-3.35.77ZM685.91,248.12c.25-.53.63-.99.9-1.51l-9.89-5.49c-.54,5.84,4.63,2.43,4.94,7.59.85.74,3.02-.3,4.05-.59-.44.93-1.46,1.66-1.86,2.67l.29,1.31c3.13,1.78,5.23,6.78,7.49,8.61,1.59,1.29,3.91,1.31,4.07,1.46.49.45-2.5,11.17,7,1.95.59,2.74-4.18,4.06-3.85,6.31.43,2.89,5.57,4.23,4.94,8l12.91,22.69c-.05-6.97-.34-15.56-2.08-22.33-1.16-4.5-3.45-14.66-8.92-14.67l1.03-2.98-4-1.02,1.99-1.48c-2.38-2.13-3.36-5.17-6.99-3.51,1.31-2.46.57-3.33-1.5-4.97l-4.49,3.98,2.99-4.99c-3.53.6-3.92-.24-5.49-2.99-.96,1.32-2.06,1.58-3.51,1.98ZM570.51,283.13c-5.74,6.8-10.3,17.09-5.77,25.67,3.74,7.09,11.01,4.9,17.64,5.36,2.15.15,7.92,3.76,8.57-2.58.73-7.15-13.13-25.63-20.44-28.45ZM954.88,292.12c-10.83,1.5-24.49,5.53-34.51,9.97-1.28.57-4.23,1.53-4.48,3.01,13.21-3.04,28.19-3.62,38.99-12.98ZM988.01,318.97c1.71,2.77,18.65,4.42,22.35,4.11,23.75-1.95,19.49-26.88.48-23.53-5.26.93-26.7,13.13-22.82,19.42ZM559.92,303.11c-2.06-2.23-2.75,4.62-2.67,5.37,1.25,11.76,12.29,12.61,21.67,10.62l-13.97-4.51-5.03-11.48ZM1014.97,328.04c4.28-.37,10.04-1.49,8.89-6.94l-9.99,4.02,1.1,2.92ZM899.89,404.1v-27.5c0-2.09-1.85-9.88-2.49-12.51-2.16-8.76-6.22-19.05-12.01-25.98-2.33,13.86-10.03,28.9-2.52,42.51l17.02,23.47ZM901.9,392.1c12.02-12.33,6.55-33.41-6-42.99,4.32,14.41,8.91,27.63,6,42.99ZM1104.51,409.47c-2.04-1.04-17.75-2.96-19.93-2.39-.48.13-3.6,4.57-5.22,5.01l-.5-2c-3.97,1.75-1.12,4.19,1.92,5.14l-.93,3.85-4.52-7.02c-3.15.91-6.49,3.66-5.25,7.28,1.81,5.28,6.68,2.53,10.78,3.76l-.99,1.96,3.59,1.06,2.78-1.96,2.62,2.92,1-2.99c2.64,1.42,4.2,3.71,7.5,4.08,4.4.49,18.29-.55,22.55-1.52,1.47-.33,2.95-.79,3.92-2.06-1.53-1.45-2.88-3.13-4.5-4.48-3.21-2.68-11.42-8.91-14.83-10.65ZM1079.64,428.31c-4.75,1.4-5.85-1.22-9.76-3.22.17,4.12,6.79,3.34,3.99,7.99l2.5-.99-.5-1.99c2.4-.65,3.29,2.73,4.98,3.43.85.35,2.04-.59,2.77-.23s1.21,3.8,5.26,1.79l-1.01,1.99c10.73,2.13,19.19,1.07,27-6.5-4.16-2.65-10.37,1.47-14.34,1.23-2.7-.16-9.05-2.9-12.08-2.75-.37.02-.6,3.23-4.08,2.04l-.5-3.02c-2.78-1.02-1.47,1.8-2.5,2.01l-1.46-.06-.26-1.73ZM1004.87,444.09c-2.96-.99.4-5.4-3.99-4.99,3.22,20.91-16.04,53.78-2.84,72.32,4.96,6.96,24.6,11.74,29.88,4.95,10.75-13.81-7.56-63.44-22.05-73.78l-1.01,1.5ZM1033.87,493.58c.5,4.45,0,10.32,0,15,0,.17-2.14,1.75-.5,2.49,13.35-12.81,1.97-31.96-4.69-45.29l-9.81-12.19c5.7,12.21,13.47,26.35,15.01,39.99ZM1073.86,519.08c1.86-10.06,6.26-19.74,7-29.99l-4.8,8.78-3.97,13.95,1.77,7.26ZM1083.86,494.09c-2.58-.44-1.81.37-2.29,2.15-.84,3.11-.4,6.05-1.14,8.9-2.13,8.15-9.47,16.75-.06,23.93,6.25-11.52,4.56-22.66,3.49-34.98ZM1172.2,595.7c5.86,3.2,14.1,3.33,17.52-3.26,2.2-4.24-1.9-13.39-4.13-17.6-8.47-15.98-25.39-28.03-40.72-36.76,1.74,6.92,3.59,13.96,5.72,20.76,4.08,13,8.79,29.85,21.61,36.86ZM1192.85,579.07c-.36-14.21-14.33-27.12-26.99-31.98,11.91,8.53,17.36,17.86,24.51,30.01.76,1.29-.18,2.52,2.48,1.97ZM1173.85,598.08c-11.61-3.19-17.96-16.42-23-26.49l-6.97-20.51c.7,15.8,9.47,43.65,26.92,47.56,1,.22,3.31,1.26,3.05-.56Z"></path><path class="cls-1" d="M879.88,230.13c.2,1.88-2.09.81-3.2.7-7.71-.75-15.37-2.71-22.99-4.02l-46.8-11.68c24.37,4.33,48.22,12.16,72.98,15Z"></path><rect class="cls-1" x="899.89" y="180.12" width="30" height="1"></rect></g></g></svg> 