<?xml version="1.0" encoding="UTF-8"?> <svg xmlns="http://www.w3.org/2000/svg" id="Layer_2" data-name="Layer 2" viewBox="0 0 162.71 93.26"><g id="Layer_1-2" data-name="Layer 1"><g><g><path d="M28.49,8.81v-.12h.26c.18,0,.34-.06.47-.19.13-.13.19-.28.19-.46V1.71c0-.19-.05-.34-.14-.44s-.23-.15-.41-.15h-.46v-.12c.16-.03.31-.05.46-.08.15-.03.29-.07.43-.13.14-.05.27-.12.4-.21.13-.09.25-.21.37-.34h.12v7.81c0,.18.07.33.2.45.13.12.29.19.46.19h.25v.12h-2.6Z"></path><path d="M53.85,2.38l-.22-1.36c.15-.15.35-.29.59-.4.24-.12.5-.21.77-.28.27-.07.54-.1.79-.1.53,0,.99.1,1.39.29.4.19.7.46.92.82.22.35.32.78.32,1.27,0,.41-.09.82-.27,1.24-.18.42-.41.83-.7,1.24s-.6.79-.94,1.16c-.34.37-.66.71-.98,1.03-.32.32-.6.6-.84.85h2.76c.24,0,.44-.03.59-.1s.3-.17.42-.32.25-.35.39-.6h.12l-.56,1.69h-4.93v-.12c.28-.26.6-.57.95-.94.36-.37.71-.78,1.07-1.21.36-.43.69-.88,1-1.33.3-.46.55-.9.74-1.34.19-.44.28-.84.28-1.21,0-.65-.15-1.16-.46-1.53-.31-.37-.73-.55-1.27-.53-.56,0-1,.16-1.33.47-.33.3-.49.74-.48,1.31h-.12Z"></path><path d="M80.42.26c.49-.03.91.04,1.26.2.35.16.62.37.82.65.19.28.29.59.29.94,0,.29-.06.56-.19.83s-.29.49-.5.68c-.2.19-.42.33-.66.41s-.46.1-.68.04c.26,0,.53.04.79.14.26.09.51.23.73.41.22.19.4.41.53.69.13.28.2.59.2.95,0,.38-.08.73-.23,1.07-.16.34-.37.64-.65.91-.28.27-.6.49-.98.67s-.79.3-1.23.36c-.44.06-.91.05-1.39-.03l.02-.12c.48,0,.93-.05,1.36-.19.42-.13.8-.33,1.13-.59s.59-.56.78-.92c.19-.36.28-.76.28-1.19,0-.46-.11-.83-.32-1.12-.21-.29-.5-.51-.87-.65-.37-.14-.79-.21-1.27-.21l.02-.12c.36,0,.71-.08,1.06-.24s.63-.39.85-.7c.22-.3.32-.68.29-1.12,0-.24-.07-.47-.17-.68-.11-.21-.27-.39-.48-.52-.21-.13-.49-.2-.82-.2-.5,0-.88.15-1.15.45-.27.3-.4.69-.37,1.16h-.12l-.2-1.12c.19-.22.43-.41.73-.57s.67-.26,1.15-.28Z"></path><path d="M107.75.24l.12.45-3.61,4.47h4.13c.22,0,.37-.02.44-.06.07-.04.14-.1.22-.18h.12l-.25.9h-5.56v-.12L107.75.24ZM107.87,8.04c0,.18.07.33.2.46.13.13.29.19.46.19h.13v.12h-2.38v-.12h.13c.18,0,.34-.06.47-.19.13-.12.2-.28.2-.46h.78ZM107.09,1.44l.66-1.2h.12v8.56h-.78V1.44Z"></path><path d="M132.62,1.32l-2.82.18-.55,1.89c.5-.13.99-.17,1.45-.14.46.04.87.15,1.23.35.36.2.64.48.84.83.2.36.29.79.26,1.31-.02.58-.16,1.08-.41,1.49s-.56.75-.93,1.02-.76.47-1.17.62c-.41.14-.79.24-1.14.28-.35.04-.63.04-.83.01l.02-.12c.2,0,.44-.03.73-.11s.59-.2.91-.37c.32-.17.61-.38.89-.64.28-.26.51-.56.7-.91.19-.35.3-.74.33-1.18.04-.54-.09-.98-.38-1.31s-.71-.54-1.23-.62c-.52-.08-1.11,0-1.77.21l-.11-.05.94-3.25,2.38-.18c.26,0,.46-.05.6-.17.14-.11.26-.26.35-.43h.12l-.4,1.26Z"></path><path d="M157.83,0l.05.08c-.57.18-1.05.45-1.46.81-.4.36-.73.78-.98,1.26-.25.48-.44,1.02-.56,1.59-.12.58-.18,1.18-.18,1.8s.07,1.13.21,1.6c.14.46.35.83.62,1.09.28.27.62.4,1.03.4.38,0,.69-.11.93-.32.24-.21.41-.49.53-.83.12-.34.17-.7.16-1.09,0-.4-.07-.75-.2-1.04-.12-.3-.31-.53-.55-.69-.24-.16-.53-.25-.88-.25-.25,0-.49.05-.73.16-.24.11-.43.26-.59.47l-.07-.11c.21-.25.44-.45.71-.61.26-.16.54-.26.82-.31.28-.05.56-.05.83.01.27.06.51.18.74.35.22.18.41.42.55.73.14.31.23.68.26,1.12.03.46-.05.91-.25,1.33s-.49.76-.88,1.03c-.39.27-.85.41-1.4.41-.54,0-1.01-.12-1.43-.39-.42-.27-.75-.67-.98-1.18-.24-.52-.35-1.14-.34-1.87,0-.62.09-1.25.26-1.87.16-.62.41-1.19.74-1.72s.74-.96,1.25-1.31c.5-.35,1.1-.57,1.79-.65Z"></path></g><g><path d="M3.37,21.43l4.8-.03-1.3,3.48c-.06.16-.14.39-.25.68-.11.3-.23.63-.36,1.01-.13.38-.26.76-.39,1.16-.13.4-.25.78-.35,1.13s-.19.67-.26.94h-.84c.1-.25.21-.53.34-.86s.27-.67.41-1.04c.15-.37.29-.74.44-1.11.14-.37.28-.73.41-1.06s.25-.63.35-.9l1.06-2.77h-3.38c-.24,0-.43.06-.56.18-.14.12-.25.3-.34.54h-.12l.34-1.36Z"></path><path d="M28.83,23.24c0-.38.09-.71.26-1.01.17-.3.42-.54.74-.71s.71-.27,1.16-.28c.42,0,.79.07,1.11.23.32.16.58.39.77.7.19.3.28.67.28,1.1,0,.35-.07.67-.2.96-.14.29-.34.54-.6.74-.26.21-.59.36-.97.45l-.32-.18c.3-.2.54-.41.71-.64s.3-.46.37-.7c.08-.24.11-.49.11-.74,0-.48-.11-.86-.34-1.15-.22-.28-.53-.43-.91-.43-.41,0-.72.15-.94.44-.22.3-.33.64-.33,1.04,0,.26.05.51.14.74.1.23.24.44.42.63.18.19.41.36.67.51.22.13.48.26.78.4s.58.31.86.5c.28.2.51.44.7.73.18.29.28.66.28,1.1s-.11.84-.32,1.18-.51.61-.9.8c-.39.19-.85.29-1.37.29-.39,0-.75-.05-1.08-.17-.33-.11-.61-.27-.83-.47-.23-.21-.4-.45-.52-.74-.12-.29-.17-.61-.16-.96,0-.21.04-.42.1-.61s.14-.36.25-.53.24-.32.4-.46c.16-.14.34-.27.54-.4.2-.12.43-.24.68-.34l.29.23c-.37.22-.68.51-.95.87-.26.36-.4.81-.41,1.35,0,.57.14,1.02.44,1.36.3.34.72.5,1.26.5.39,0,.71-.08.95-.25s.43-.38.55-.65.18-.54.18-.84c0-.31-.05-.57-.16-.78-.11-.21-.25-.38-.43-.53-.18-.14-.37-.27-.57-.37-.2-.1-.4-.21-.59-.3-.3-.16-.57-.33-.83-.51-.26-.18-.48-.38-.67-.6-.19-.22-.34-.46-.44-.71-.1-.26-.16-.53-.16-.83Z"></path><path d="M54.66,30.25l-.04-.08c.57-.16,1.05-.42,1.45-.77.4-.35.73-.77.98-1.26.25-.49.44-1.02.56-1.59s.18-1.16.18-1.76c0-.65-.07-1.21-.2-1.69-.14-.48-.34-.84-.61-1.1-.27-.26-.62-.38-1.03-.38-.38,0-.69.1-.93.31-.24.21-.42.48-.53.82-.11.34-.16.71-.16,1.11,0,.38.07.73.2,1.03.12.3.31.54.55.71s.53.25.88.24c.25,0,.49-.06.73-.16.24-.1.43-.25.59-.46l.06.11c-.2.26-.43.46-.7.61-.26.15-.54.25-.83.3-.29.05-.57.04-.85-.03s-.53-.19-.76-.37c-.23-.18-.41-.42-.55-.72-.14-.3-.21-.66-.23-1.09-.02-.57.08-1.06.3-1.46.22-.41.52-.72.91-.95.39-.23.83-.35,1.31-.35.83-.02,1.5.28,2,.88.5.61.75,1.46.75,2.57,0,.6-.08,1.21-.24,1.83-.16.62-.41,1.2-.74,1.74-.33.54-.75.99-1.25,1.34s-1.1.56-1.8.62Z"></path><g><path d="M75.28,29.81v-.12h.26c.18,0,.34-.06.47-.19.13-.13.19-.28.19-.46v-6.32c0-.19-.05-.34-.14-.44s-.23-.15-.41-.15h-.46v-.12c.16-.03.31-.05.46-.08.15-.03.29-.07.43-.13.14-.05.27-.12.4-.21.13-.09.25-.21.37-.34h.12v7.81c0,.18.07.33.2.45.13.12.29.19.46.19h.25v.12h-2.6Z"></path><path d="M82.18,21.24c.58,0,1.09.18,1.51.53s.74.85.97,1.51c.23.65.34,1.43.34,2.33s-.11,1.68-.34,2.33c-.23.65-.55,1.15-.97,1.51s-.92.53-1.51.53-1.09-.18-1.51-.53-.74-.85-.97-1.51c-.23-.65-.34-1.43-.34-2.33s.11-1.68.34-2.33c.23-.65.55-1.15.97-1.51s.92-.53,1.51-.53ZM82.18,21.6c-.61,0-1.09.36-1.45,1.07-.36.71-.53,1.69-.53,2.93s.18,2.22.53,2.93c.36.72.84,1.07,1.45,1.07s1.1-.36,1.45-1.07c.35-.71.53-1.69.53-2.93s-.18-2.22-.53-2.93c-.35-.72-.84-1.07-1.45-1.07Z"></path></g><g><path d="M100.35,29.81v-.12h.26c.18,0,.34-.06.47-.19.13-.13.19-.28.19-.46v-6.32c0-.19-.05-.34-.14-.44s-.23-.15-.41-.15h-.46v-.12c.16-.03.31-.05.46-.08.15-.03.29-.07.43-.13.14-.05.27-.12.4-.21.13-.09.25-.21.37-.34h.12v7.81c0,.18.07.33.2.45.13.12.29.19.46.19h.25v.12h-2.6Z"></path><path d="M104.48,29.81v-.12h.26c.18,0,.34-.06.47-.19.13-.13.19-.28.19-.46v-6.32c0-.19-.05-.34-.14-.44s-.23-.15-.41-.15h-.46v-.12c.16-.03.31-.05.46-.08.15-.03.29-.07.43-.13.14-.05.27-.12.4-.21.13-.09.25-.21.37-.34h.12v7.81c0,.18.07.33.2.45.13.12.29.19.46.19h.25v.12h-2.6Z"></path></g><g><path d="M125.42,29.81v-.12h.26c.18,0,.34-.06.47-.19.13-.13.19-.28.19-.46v-6.32c0-.19-.05-.34-.14-.44s-.23-.15-.41-.15h-.46v-.12c.16-.03.31-.05.46-.08.15-.03.29-.07.43-.13.14-.05.27-.12.4-.21.13-.09.25-.21.37-.34h.12v7.81c0,.18.07.33.2.45.13.12.29.19.46.19h.25v.12h-2.6Z"></path><path d="M129.84,23.38l-.22-1.36c.15-.15.35-.29.59-.4.24-.12.5-.21.77-.28.27-.07.54-.1.79-.1.53,0,.99.1,1.39.29.4.19.7.46.92.82.22.35.32.78.32,1.27,0,.41-.09.82-.27,1.24-.18.42-.41.83-.7,1.24s-.6.79-.94,1.16c-.34.37-.66.71-.98,1.03-.32.32-.6.6-.84.85h2.76c.24,0,.44-.03.59-.1s.3-.17.42-.32.25-.35.39-.6h.12l-.56,1.69h-4.93v-.12c.28-.26.6-.57.95-.94.36-.37.71-.78,1.07-1.21.36-.43.69-.88,1-1.33.3-.46.55-.9.74-1.34.19-.44.28-.84.28-1.21,0-.65-.15-1.16-.46-1.53-.31-.37-.73-.55-1.27-.53-.56,0-1,.16-1.33.47-.33.3-.49.74-.48,1.31h-.12Z"></path></g><g><path d="M150.48,29.81v-.12h.26c.18,0,.34-.06.47-.19.13-.13.19-.28.19-.46v-6.32c0-.19-.05-.34-.14-.44s-.23-.15-.41-.15h-.46v-.12c.16-.03.31-.05.46-.08.15-.03.29-.07.43-.13.14-.05.27-.12.4-.21.13-.09.25-.21.37-.34h.12v7.81c0,.18.07.33.2.45.13.12.29.19.46.19h.25v.12h-2.6Z"></path><path d="M156.41,21.26c.49-.03.91.04,1.26.2.35.16.62.37.82.65s.29.59.29.94c0,.29-.06.56-.19.83s-.29.49-.5.68c-.2.19-.42.33-.66.41-.24.08-.46.1-.68.04.26,0,.53.04.79.14.26.09.51.23.73.41.22.19.4.41.53.69.13.28.2.59.2.95,0,.38-.08.73-.23,1.07s-.37.64-.65.91c-.28.27-.6.49-.98.67s-.79.3-1.23.36c-.44.06-.91.05-1.39-.03l.02-.12c.48,0,.93-.05,1.36-.19.42-.13.8-.33,1.13-.59s.59-.56.78-.92.28-.76.28-1.19c0-.46-.11-.83-.32-1.12-.21-.29-.5-.51-.87-.65-.37-.14-.79-.21-1.27-.21l.02-.12c.36,0,.71-.08,1.06-.24.34-.16.63-.39.85-.7.22-.3.32-.68.29-1.12,0-.24-.07-.47-.17-.68-.11-.21-.27-.39-.48-.52-.21-.13-.49-.2-.82-.2-.5,0-.88.15-1.15.45-.27.3-.4.69-.37,1.16h-.12l-.2-1.12c.19-.22.43-.41.73-.57s.67-.26,1.15-.28Z"></path></g></g><g><g><path d="M.08,50.81v-.12h.26c.18,0,.34-.06.47-.19.13-.13.19-.28.19-.46v-6.32c0-.19-.05-.34-.14-.44s-.23-.15-.41-.15h-.46v-.12c.16-.03.31-.05.46-.08.15-.03.29-.07.43-.13.14-.05.27-.12.4-.21.13-.09.25-.21.37-.34h.12v7.81c0,.18.07.33.2.45.13.12.29.19.46.19h.25v.12H.08Z"></path><path d="M8.28,42.24l.12.45-3.61,4.47h4.13c.22,0,.37-.02.44-.06.07-.04.14-.1.22-.18h.12l-.25.9H3.89v-.12l4.39-5.46ZM8.4,50.04c0,.18.07.33.2.46.13.13.29.19.46.19h.13v.12h-2.38v-.12h.13c.18,0,.34-.06.47-.19.13-.12.2-.28.2-.46h.78ZM7.62,43.44l.66-1.2h.12v8.56h-.78v-7.36Z"></path></g><g><path d="M25.15,50.81v-.12h.26c.18,0,.34-.06.47-.19.13-.13.19-.28.19-.46v-6.32c0-.19-.05-.34-.14-.44s-.23-.15-.41-.15h-.46v-.12c.16-.03.31-.05.46-.08.15-.03.29-.07.43-.13.14-.05.27-.12.4-.21.13-.09.25-.21.37-.34h.12v7.81c0,.18.07.33.2.45.13.12.29.19.46.19h.25v.12h-2.6Z"></path><path d="M33.14,43.32l-2.82.18-.55,1.89c.5-.13.99-.17,1.45-.14.46.04.87.15,1.23.35.36.2.64.48.84.83.2.36.29.79.26,1.31-.02.58-.16,1.08-.41,1.49s-.56.75-.93,1.02-.76.47-1.17.62c-.41.14-.79.24-1.14.28-.35.04-.63.04-.83.01l.02-.12c.2,0,.44-.03.73-.11s.59-.2.91-.37c.32-.17.61-.38.89-.64.28-.26.51-.56.7-.91.19-.35.3-.74.33-1.18.04-.54-.09-.98-.38-1.31s-.71-.54-1.23-.62c-.52-.08-1.11,0-1.77.21l-.11-.05.94-3.25,2.38-.18c.26,0,.46-.05.6-.17.14-.11.26-.26.35-.43h.12l-.4,1.26Z"></path></g><g><path d="M50.22,50.81v-.12h.26c.18,0,.34-.06.47-.19.13-.13.19-.28.19-.46v-6.32c0-.19-.05-.34-.14-.44s-.23-.15-.41-.15h-.46v-.12c.16-.03.31-.05.46-.08.15-.03.29-.07.43-.13.14-.05.27-.12.4-.21.13-.09.25-.21.37-.34h.12v7.81c0,.18.07.33.2.45.13.12.29.19.46.19h.25v.12h-2.6Z"></path><path d="M58.35,42l.05.08c-.57.18-1.05.45-1.46.81-.4.36-.73.78-.98,1.26-.25.48-.44,1.02-.56,1.59-.12.58-.18,1.18-.18,1.8s.07,1.13.21,1.6c.14.46.35.83.62,1.09.28.27.62.4,1.03.4.38,0,.69-.11.93-.32.24-.21.41-.49.53-.83s.17-.7.16-1.09c0-.4-.07-.75-.2-1.04-.12-.3-.31-.53-.55-.69s-.53-.25-.88-.25c-.25,0-.49.05-.73.16-.24.11-.43.26-.59.47l-.07-.11c.21-.25.44-.45.71-.61.26-.16.54-.26.82-.31.28-.05.56-.05.83.01.27.06.51.18.74.35s.41.42.55.73c.14.31.23.68.26,1.12.03.46-.05.91-.25,1.33-.2.42-.49.76-.88,1.03-.39.27-.85.41-1.4.41-.54,0-1.01-.12-1.43-.39-.42-.27-.75-.67-.98-1.18-.24-.52-.35-1.14-.34-1.87,0-.62.09-1.25.26-1.87.16-.62.41-1.19.74-1.72s.74-.96,1.25-1.31c.5-.35,1.1-.57,1.79-.65Z"></path></g><g><path d="M75.28,50.81v-.12h.26c.18,0,.34-.06.47-.19.13-.13.19-.28.19-.46v-6.32c0-.19-.05-.34-.14-.44s-.23-.15-.41-.15h-.46v-.12c.16-.03.31-.05.46-.08.15-.03.29-.07.43-.13.14-.05.27-.12.4-.21.13-.09.25-.21.37-.34h.12v7.81c0,.18.07.33.2.45.13.12.29.19.46.19h.25v.12h-2.6Z"></path><path d="M79.36,42.43l4.8-.03-1.3,3.48c-.06.16-.14.39-.25.68-.11.3-.23.63-.36,1.01-.13.38-.26.76-.39,1.16-.13.4-.25.78-.35,1.13s-.19.67-.26.94h-.84c.1-.25.21-.53.34-.86s.27-.67.41-1.04c.15-.37.29-.74.44-1.11.14-.37.28-.73.41-1.06s.25-.63.35-.9l1.06-2.77h-3.38c-.24,0-.43.06-.56.18-.14.12-.25.3-.34.54h-.12l.34-1.36Z"></path></g><g><path d="M100.35,50.81v-.12h.26c.18,0,.34-.06.47-.19.13-.13.19-.28.19-.46v-6.32c0-.19-.05-.34-.14-.44s-.23-.15-.41-.15h-.46v-.12c.16-.03.31-.05.46-.08.15-.03.29-.07.43-.13.14-.05.27-.12.4-.21.13-.09.25-.21.37-.34h.12v7.81c0,.18.07.33.2.45.13.12.29.19.46.19h.25v.12h-2.6Z"></path><path d="M104.83,44.24c0-.38.09-.71.26-1.01.17-.3.42-.54.74-.71s.71-.27,1.16-.28c.42,0,.79.07,1.11.23.32.16.58.39.77.7.19.3.28.67.28,1.1,0,.35-.07.67-.2.96-.14.29-.34.54-.6.74-.26.21-.59.36-.97.45l-.32-.18c.3-.2.54-.41.71-.64s.3-.46.37-.7c.08-.24.11-.49.11-.74,0-.48-.11-.86-.34-1.15-.22-.28-.53-.43-.91-.43-.41,0-.72.15-.94.44-.22.3-.33.64-.33,1.04,0,.26.05.51.14.74.1.23.24.44.42.63.18.19.41.36.67.51.22.13.48.26.78.4s.58.31.86.5c.28.2.51.44.7.73.18.29.28.66.28,1.1s-.11.84-.32,1.18-.51.61-.9.8c-.39.19-.85.29-1.37.29-.39,0-.75-.05-1.08-.17-.33-.11-.61-.27-.83-.47-.23-.21-.4-.45-.52-.74-.12-.29-.17-.61-.16-.96,0-.21.04-.42.1-.61s.14-.36.25-.53.24-.32.4-.46c.16-.14.34-.27.54-.4.2-.12.43-.24.68-.34l.29.23c-.37.22-.68.51-.95.87-.26.36-.4.81-.41,1.35,0,.57.14,1.02.44,1.36.3.34.72.5,1.26.5.39,0,.71-.08.95-.25s.43-.38.55-.65.18-.54.18-.84c0-.31-.05-.57-.16-.78-.11-.21-.25-.38-.43-.53-.18-.14-.37-.27-.57-.37-.2-.1-.4-.21-.59-.3-.3-.16-.57-.33-.83-.51-.26-.18-.48-.38-.67-.6-.19-.22-.34-.46-.44-.71-.1-.26-.16-.53-.16-.83Z"></path></g><g><path d="M125.42,50.81v-.12h.26c.18,0,.34-.06.47-.19.13-.13.19-.28.19-.46v-6.32c0-.19-.05-.34-.14-.44s-.23-.15-.41-.15h-.46v-.12c.16-.03.31-.05.46-.08.15-.03.29-.07.43-.13.14-.05.27-.12.4-.21.13-.09.25-.21.37-.34h.12v7.81c0,.18.07.33.2.45.13.12.29.19.46.19h.25v.12h-2.6Z"></path><path d="M130.65,51.25l-.04-.08c.57-.16,1.05-.42,1.45-.77.4-.35.73-.77.98-1.26.25-.49.44-1.02.56-1.59s.18-1.16.18-1.76c0-.65-.07-1.21-.2-1.69-.14-.48-.34-.84-.61-1.1-.27-.26-.62-.38-1.03-.38-.38,0-.69.1-.93.31-.24.21-.42.48-.53.82-.11.34-.16.71-.16,1.11,0,.38.07.73.2,1.03.12.3.31.54.55.71s.53.25.88.24c.25,0,.49-.06.73-.16.24-.1.43-.25.59-.46l.06.11c-.2.26-.43.46-.7.61-.26.15-.54.25-.83.3-.29.05-.57.04-.85-.03s-.53-.19-.76-.37c-.23-.18-.41-.42-.55-.72-.14-.3-.21-.66-.23-1.09-.02-.57.08-1.06.3-1.46.22-.41.52-.72.91-.95.39-.23.83-.35,1.31-.35.83-.02,1.5.28,2,.88.5.61.75,1.46.75,2.57,0,.6-.08,1.21-.24,1.83-.16.62-.41,1.2-.74,1.74-.33.54-.75.99-1.25,1.34s-1.1.56-1.8.62Z"></path></g><g><path d="M150.78,44.38l-.22-1.36c.15-.15.35-.29.59-.4s.5-.21.77-.28c.27-.07.54-.1.79-.1.53,0,.99.1,1.39.29.4.19.7.46.92.82.22.35.32.78.32,1.27,0,.41-.09.82-.27,1.24-.18.42-.41.83-.7,1.24s-.6.79-.94,1.16c-.34.37-.66.71-.98,1.03-.32.32-.6.6-.84.85h2.76c.24,0,.44-.03.59-.1.16-.06.3-.17.42-.32s.25-.35.39-.6h.12l-.56,1.69h-4.93v-.12c.28-.26.6-.57.95-.94.36-.37.71-.78,1.07-1.21.36-.43.69-.88,1-1.33.3-.46.55-.9.74-1.34.19-.44.28-.84.28-1.21,0-.65-.15-1.16-.46-1.53-.31-.37-.73-.55-1.27-.53-.56,0-1,.16-1.33.47-.33.3-.49.74-.48,1.31h-.12Z"></path><path d="M159.89,42.24c.58,0,1.09.18,1.51.53s.74.85.97,1.51c.23.65.34,1.43.34,2.33s-.11,1.68-.34,2.33c-.23.65-.55,1.15-.97,1.51s-.92.53-1.51.53-1.09-.18-1.51-.53c-.42-.35-.74-.85-.97-1.51-.23-.65-.34-1.43-.34-2.33s.11-1.68.34-2.33c.23-.65.55-1.15.97-1.51.42-.35.92-.53,1.51-.53ZM159.89,42.6c-.61,0-1.09.36-1.45,1.07-.36.71-.53,1.69-.53,2.93s.18,2.22.53,2.93c.36.72.84,1.07,1.45,1.07s1.1-.36,1.45-1.07c.35-.71.53-1.69.53-2.93s-.18-2.22-.53-2.93c-.35-.72-.84-1.07-1.45-1.07Z"></path></g></g><g><g><path d="M.38,65.38l-.22-1.36c.15-.15.35-.29.59-.4.24-.12.5-.21.77-.28.27-.07.54-.1.79-.1.53,0,.99.1,1.39.29.4.19.7.46.92.82.22.35.32.78.32,1.27,0,.41-.09.82-.27,1.24-.18.42-.41.83-.7,1.24s-.6.79-.94,1.16c-.34.37-.66.71-.98,1.03-.32.32-.6.6-.84.85h2.76c.24,0,.44-.03.59-.1s.3-.17.42-.32.25-.35.39-.6h.12l-.56,1.69H0v-.12c.28-.26.6-.57.95-.94.36-.37.71-.78,1.07-1.21.36-.43.69-.88,1-1.33.3-.46.55-.9.74-1.34.19-.44.28-.84.28-1.21,0-.65-.15-1.16-.46-1.53-.31-.37-.73-.55-1.27-.53-.56,0-1,.16-1.33.47-.33.3-.49.74-.48,1.31h-.12Z"></path><path d="M6.72,71.81v-.12h.26c.18,0,.34-.06.47-.19.13-.13.19-.28.19-.46v-6.32c0-.19-.05-.34-.14-.44s-.23-.15-.41-.15h-.46v-.12c.16-.03.31-.05.46-.08.15-.03.29-.07.43-.13.14-.05.27-.12.4-.21.13-.09.25-.21.37-.34h.12v7.81c0,.18.07.33.2.45.13.12.29.19.46.19h.25v.12h-2.6Z"></path></g><g><path d="M25.45,65.38l-.22-1.36c.15-.15.35-.29.59-.4.24-.12.5-.21.77-.28.27-.07.54-.1.79-.1.53,0,.99.1,1.39.29.4.19.7.46.92.82.22.35.32.78.32,1.27,0,.41-.09.82-.27,1.24-.18.42-.41.83-.7,1.24s-.6.79-.94,1.16c-.34.37-.66.71-.98,1.03-.32.32-.6.6-.84.85h2.76c.24,0,.44-.03.59-.1s.3-.17.42-.32.25-.35.39-.6h.12l-.56,1.69h-4.93v-.12c.28-.26.6-.57.95-.94.36-.37.71-.78,1.07-1.21.36-.43.69-.88,1-1.33.3-.46.55-.9.74-1.34.19-.44.28-.84.28-1.21,0-.65-.15-1.16-.46-1.53-.31-.37-.73-.55-1.27-.53-.56,0-1,.16-1.33.47-.33.3-.49.74-.48,1.31h-.12Z"></path><path d="M32.09,65.38l-.22-1.36c.15-.15.35-.29.59-.4.24-.12.5-.21.77-.28.27-.07.54-.1.79-.1.53,0,.99.1,1.39.29.4.19.7.46.92.82.22.35.32.78.32,1.27,0,.41-.09.82-.27,1.24-.18.42-.41.83-.7,1.24s-.6.79-.94,1.16c-.34.37-.66.71-.98,1.03-.32.32-.6.6-.84.85h2.76c.24,0,.44-.03.59-.1s.3-.17.42-.32.25-.35.39-.6h.12l-.56,1.69h-4.93v-.12c.28-.26.6-.57.95-.94.36-.37.71-.78,1.07-1.21.36-.43.69-.88,1-1.33.3-.46.55-.9.74-1.34.19-.44.28-.84.28-1.21,0-.65-.15-1.16-.46-1.53-.31-.37-.73-.55-1.27-.53-.56,0-1,.16-1.33.47-.33.3-.49.74-.48,1.31h-.12Z"></path></g><g><path d="M50.52,65.38l-.22-1.36c.15-.15.35-.29.59-.4.24-.12.5-.21.77-.28.27-.07.54-.1.79-.1.53,0,.99.1,1.39.29.4.19.7.46.92.82.22.35.32.78.32,1.27,0,.41-.09.82-.27,1.24-.18.42-.41.83-.7,1.24s-.6.79-.94,1.16c-.34.37-.66.71-.98,1.03-.32.32-.6.6-.84.85h2.76c.24,0,.44-.03.59-.1s.3-.17.42-.32.25-.35.39-.6h.12l-.56,1.69h-4.93v-.12c.28-.26.6-.57.95-.94.36-.37.71-.78,1.07-1.21.36-.43.69-.88,1-1.33.3-.46.55-.9.74-1.34.19-.44.28-.84.28-1.21,0-.65-.15-1.16-.46-1.53-.31-.37-.73-.55-1.27-.53-.56,0-1,.16-1.33.47-.33.3-.49.74-.48,1.31h-.12Z"></path><path d="M58.65,63.26c.49-.03.91.04,1.26.2.35.16.62.37.82.65.19.28.29.59.29.94,0,.29-.06.56-.19.83s-.29.49-.5.68c-.2.19-.42.33-.66.41s-.46.1-.68.04c.26,0,.53.04.79.14.26.09.51.23.73.41.22.19.4.41.53.69.13.28.2.59.2.95,0,.38-.08.73-.23,1.07-.16.34-.37.64-.65.91-.28.27-.6.49-.98.67s-.79.3-1.23.36c-.44.06-.91.05-1.39-.03l.02-.12c.48,0,.93-.05,1.36-.19.42-.13.8-.33,1.13-.59s.59-.56.78-.92c.19-.36.28-.76.28-1.19,0-.46-.11-.83-.32-1.12-.21-.29-.5-.51-.87-.65-.37-.14-.79-.21-1.27-.21l.02-.12c.36,0,.71-.08,1.06-.24s.63-.39.85-.7c.22-.3.32-.68.29-1.12,0-.24-.07-.47-.17-.68-.11-.21-.27-.39-.48-.52-.21-.13-.49-.2-.82-.2-.5,0-.88.15-1.15.45-.27.3-.4.69-.37,1.16h-.12l-.2-1.12c.19-.22.43-.41.73-.57s.67-.26,1.15-.28Z"></path></g><g><path d="M75.58,65.38l-.22-1.36c.15-.15.35-.29.59-.4.24-.12.5-.21.77-.28.27-.07.54-.1.79-.1.53,0,.99.1,1.39.29.4.19.7.46.92.82.22.35.32.78.32,1.27,0,.41-.09.82-.27,1.24-.18.42-.41.83-.7,1.24s-.6.79-.94,1.16c-.34.37-.66.71-.98,1.03-.32.32-.6.6-.84.85h2.76c.24,0,.44-.03.59-.1s.3-.17.42-.32.25-.35.39-.6h.12l-.56,1.69h-4.93v-.12c.28-.26.6-.57.95-.94.36-.37.71-.78,1.07-1.21.36-.43.69-.88,1-1.33.3-.46.55-.9.74-1.34.19-.44.28-.84.28-1.21,0-.65-.15-1.16-.46-1.53-.31-.37-.73-.55-1.27-.53-.56,0-1,.16-1.33.47-.33.3-.49.74-.48,1.31h-.12Z"></path><path d="M85.99,63.24l.12.45-3.61,4.47h4.13c.22,0,.37-.02.44-.06.07-.04.14-.1.22-.18h.12l-.25.9h-5.56v-.12l4.39-5.46ZM86.11,71.04c0,.18.07.33.2.46.13.13.29.19.46.19h.13v.12h-2.38v-.12h.13c.18,0,.34-.06.47-.19.13-.12.2-.28.2-.46h.78ZM85.33,64.44l.66-1.2h.12v8.56h-.78v-7.36Z"></path></g><g><path d="M100.65,65.38l-.22-1.36c.15-.15.35-.29.59-.4.24-.12.5-.21.77-.28.27-.07.54-.1.79-.1.53,0,.99.1,1.39.29.4.19.7.46.92.82.22.35.32.78.32,1.27,0,.41-.09.82-.27,1.24-.18.42-.41.83-.7,1.24s-.6.79-.94,1.16c-.34.37-.66.71-.98,1.03-.32.32-.6.6-.84.85h2.76c.24,0,.44-.03.59-.1s.3-.17.42-.32.25-.35.39-.6h.12l-.56,1.69h-4.93v-.12c.28-.26.6-.57.95-.94.36-.37.71-.78,1.07-1.21.36-.43.69-.88,1-1.33.3-.46.55-.9.74-1.34.19-.44.28-.84.28-1.21,0-.65-.15-1.16-.46-1.53-.31-.37-.73-.55-1.27-.53-.56,0-1,.16-1.33.47-.33.3-.49.74-.48,1.31h-.12Z"></path><path d="M110.85,64.32l-2.82.18-.55,1.89c.5-.13.99-.17,1.45-.14.46.04.87.15,1.23.35.36.2.64.48.84.83.2.36.29.79.26,1.31-.02.58-.16,1.08-.41,1.49s-.56.75-.93,1.02-.76.47-1.17.62c-.41.14-.79.24-1.14.28-.35.04-.63.04-.83.01l.02-.12c.2,0,.44-.03.73-.11s.59-.2.91-.37c.32-.17.61-.38.89-.64.28-.26.51-.56.7-.91.19-.35.3-.74.33-1.18.04-.54-.09-.98-.38-1.31s-.71-.54-1.23-.62c-.52-.08-1.11,0-1.77.21l-.11-.05.94-3.25,2.38-.18c.26,0,.46-.05.6-.17.14-.11.26-.26.35-.43h.12l-.4,1.26Z"></path></g><g><path d="M125.72,65.38l-.22-1.36c.15-.15.35-.29.59-.4.24-.12.5-.21.77-.28.27-.07.54-.1.79-.1.53,0,.99.1,1.39.29.4.19.7.46.92.82.22.35.32.78.32,1.27,0,.41-.09.82-.27,1.24-.18.42-.41.83-.7,1.24s-.6.79-.94,1.16c-.34.37-.66.71-.98,1.03-.32.32-.6.6-.84.85h2.76c.24,0,.44-.03.59-.1s.3-.17.42-.32.25-.35.39-.6h.12l-.56,1.69h-4.93v-.12c.28-.26.6-.57.95-.94.36-.37.71-.78,1.07-1.21.36-.43.69-.88,1-1.33.3-.46.55-.9.74-1.34.19-.44.28-.84.28-1.21,0-.65-.15-1.16-.46-1.53-.31-.37-.73-.55-1.27-.53-.56,0-1,.16-1.33.47-.33.3-.49.74-.48,1.31h-.12Z"></path><path d="M136.06,63l.05.08c-.57.18-1.05.45-1.46.81-.4.36-.73.78-.98,1.26-.25.48-.44,1.02-.56,1.59-.12.58-.18,1.18-.18,1.8s.07,1.13.21,1.6c.14.46.35.83.62,1.09.28.27.62.4,1.03.4.38,0,.69-.11.93-.32.24-.21.41-.49.53-.83s.17-.7.16-1.09c0-.4-.07-.75-.2-1.04-.12-.3-.31-.53-.55-.69s-.53-.25-.88-.25c-.25,0-.49.05-.73.16-.24.11-.43.26-.59.47l-.07-.11c.21-.25.44-.45.71-.61.26-.16.54-.26.82-.31.28-.05.56-.05.83.01.27.06.51.18.74.35s.41.42.55.73c.14.31.23.68.26,1.12.03.46-.05.91-.25,1.33-.2.42-.49.76-.88,1.03-.39.27-.85.41-1.4.41-.54,0-1.01-.12-1.43-.39-.42-.27-.75-.67-.98-1.18-.24-.52-.35-1.14-.34-1.87,0-.62.09-1.25.26-1.87.16-.62.41-1.19.74-1.72s.74-.96,1.25-1.31c.5-.35,1.1-.57,1.79-.65Z"></path></g><g><path d="M150.78,65.38l-.22-1.36c.15-.15.35-.29.59-.4s.5-.21.77-.28c.27-.07.54-.1.79-.1.53,0,.99.1,1.39.29.4.19.7.46.92.82.22.35.32.78.32,1.27,0,.41-.09.82-.27,1.24-.18.42-.41.83-.7,1.24s-.6.79-.94,1.16c-.34.37-.66.71-.98,1.03-.32.32-.6.6-.84.85h2.76c.24,0,.44-.03.59-.1.16-.06.3-.17.42-.32s.25-.35.39-.6h.12l-.56,1.69h-4.93v-.12c.28-.26.6-.57.95-.94.36-.37.71-.78,1.07-1.21.36-.43.69-.88,1-1.33.3-.46.55-.9.74-1.34.19-.44.28-.84.28-1.21,0-.65-.15-1.16-.46-1.53-.31-.37-.73-.55-1.27-.53-.56,0-1,.16-1.33.47-.33.3-.49.74-.48,1.31h-.12Z"></path><path d="M157.07,63.43l4.8-.03-1.3,3.48c-.06.16-.14.39-.25.68-.11.3-.23.63-.36,1.01-.13.38-.26.76-.39,1.16-.13.4-.25.78-.35,1.13-.11.36-.19.67-.26.94h-.84c.1-.25.21-.53.34-.86s.27-.67.41-1.04c.15-.37.29-.74.44-1.11.14-.37.28-.73.41-1.06s.25-.63.35-.9l1.06-2.77h-3.38c-.24,0-.43.06-.56.18-.14.12-.25.3-.34.54h-.12l.34-1.36Z"></path></g></g><g><g><path d="M.38,86.38l-.22-1.36c.15-.15.35-.29.59-.4.24-.12.5-.21.77-.28.27-.07.54-.1.79-.1.53,0,.99.1,1.39.29.4.19.7.46.92.82.22.35.32.78.32,1.27,0,.41-.09.82-.27,1.24-.18.42-.41.83-.7,1.24s-.6.79-.94,1.16c-.34.37-.66.71-.98,1.03-.32.32-.6.6-.84.85h2.76c.24,0,.44-.03.59-.1s.3-.17.42-.32.25-.35.39-.6h.12l-.56,1.69H0v-.12c.28-.26.6-.57.95-.94.36-.37.71-.78,1.07-1.21.36-.43.69-.88,1-1.33.3-.46.55-.9.74-1.34.19-.44.28-.84.28-1.21,0-.65-.15-1.16-.46-1.53-.31-.37-.73-.55-1.27-.53-.56,0-1,.16-1.33.47-.33.3-.49.74-.48,1.31h-.12Z"></path><path d="M7.07,86.24c0-.38.09-.71.26-1.01.17-.3.42-.54.74-.71s.71-.27,1.16-.28c.42,0,.79.07,1.11.23.32.16.58.39.77.7.19.3.28.67.28,1.1,0,.35-.07.67-.2.96-.14.29-.34.54-.6.74-.26.21-.59.36-.97.45l-.32-.18c.3-.2.54-.41.71-.64s.3-.46.37-.7c.08-.24.11-.49.11-.74,0-.48-.11-.86-.34-1.15-.22-.28-.53-.43-.91-.43-.41,0-.72.15-.94.44-.22.3-.33.64-.33,1.04,0,.26.05.51.14.74.1.23.24.44.42.63.18.19.41.36.67.51.22.13.48.26.78.4s.58.31.86.5c.28.2.51.44.7.73.18.29.28.66.28,1.1s-.11.84-.32,1.18-.51.61-.9.8c-.39.19-.85.29-1.37.29-.39,0-.75-.05-1.08-.17-.33-.11-.61-.27-.83-.47-.23-.21-.4-.45-.52-.74-.12-.29-.17-.61-.16-.96,0-.21.04-.42.1-.61s.14-.36.25-.53.24-.32.4-.46c.16-.14.34-.27.54-.4.2-.12.43-.24.68-.34l.29.23c-.37.22-.68.51-.95.87-.26.36-.4.81-.41,1.35,0,.57.14,1.02.44,1.36.3.34.72.5,1.26.5.39,0,.71-.08.95-.25s.43-.38.55-.65.18-.54.18-.84c0-.31-.05-.57-.16-.78-.11-.21-.25-.38-.43-.53-.18-.14-.37-.27-.57-.37-.2-.1-.4-.21-.59-.3-.3-.16-.57-.33-.83-.51-.26-.18-.48-.38-.67-.6-.19-.22-.34-.46-.44-.71-.1-.26-.16-.53-.16-.83Z"></path></g><g><path d="M25.45,86.38l-.22-1.36c.15-.15.35-.29.59-.4.24-.12.5-.21.77-.28.27-.07.54-.1.79-.1.53,0,.99.1,1.39.29.4.19.7.46.92.82.22.35.32.78.32,1.27,0,.41-.09.82-.27,1.24-.18.42-.41.83-.7,1.24s-.6.79-.94,1.16c-.34.37-.66.71-.98,1.03-.32.32-.6.6-.84.85h2.76c.24,0,.44-.03.59-.1s.3-.17.42-.32.25-.35.39-.6h.12l-.56,1.69h-4.93v-.12c.28-.26.6-.57.95-.94.36-.37.71-.78,1.07-1.21.36-.43.69-.88,1-1.33.3-.46.55-.9.74-1.34.19-.44.28-.84.28-1.21,0-.65-.15-1.16-.46-1.53-.31-.37-.73-.55-1.27-.53-.56,0-1,.16-1.33.47-.33.3-.49.74-.48,1.31h-.12Z"></path><path d="M32.89,93.25l-.04-.08c.57-.16,1.05-.42,1.45-.77.4-.35.73-.77.98-1.26.25-.49.44-1.02.56-1.59s.18-1.16.18-1.76c0-.65-.07-1.21-.2-1.69-.14-.48-.34-.84-.61-1.1-.27-.26-.62-.38-1.03-.38-.38,0-.69.1-.93.31-.24.21-.42.48-.53.82-.11.34-.16.71-.16,1.11,0,.38.07.73.2,1.03.12.3.31.54.55.71s.53.25.88.24c.25,0,.49-.06.73-.16.24-.1.43-.25.59-.46l.06.11c-.2.26-.43.46-.7.61-.26.15-.54.25-.83.3-.29.05-.57.04-.85-.03s-.53-.19-.76-.37c-.23-.18-.41-.42-.55-.72-.14-.3-.21-.66-.23-1.09-.02-.57.08-1.06.3-1.46.22-.41.52-.72.91-.95.39-.23.83-.35,1.31-.35.83-.02,1.5.28,2,.88.5.61.75,1.46.75,2.57,0,.6-.08,1.21-.24,1.83-.16.62-.41,1.2-.74,1.74-.33.54-.75.99-1.25,1.34s-1.1.56-1.8.62Z"></path></g><g><path d="M52.02,84.26c.49-.03.91.04,1.26.2.35.16.62.37.82.65.19.28.29.59.29.94,0,.29-.06.56-.19.83s-.29.49-.5.68c-.2.19-.42.33-.66.41s-.46.1-.68.04c.26,0,.53.04.79.14.26.09.51.23.73.41.22.19.4.41.53.69.13.28.2.59.2.95,0,.38-.08.73-.23,1.07-.16.34-.37.64-.65.91-.28.27-.6.49-.98.67s-.79.3-1.23.36c-.44.06-.91.05-1.39-.03l.02-.12c.48,0,.93-.05,1.36-.19.42-.13.8-.33,1.13-.59s.59-.56.78-.92c.19-.36.28-.76.28-1.19,0-.46-.11-.83-.32-1.12-.21-.29-.5-.51-.87-.65-.37-.14-.79-.21-1.27-.21l.02-.12c.36,0,.71-.08,1.06-.24s.63-.39.85-.7c.22-.3.32-.68.29-1.12,0-.24-.07-.47-.17-.68-.11-.21-.27-.39-.48-.52-.21-.13-.49-.2-.82-.2-.5,0-.88.15-1.15.45-.27.3-.4.69-.37,1.16h-.12l-.2-1.12c.19-.22.43-.41.73-.57s.67-.26,1.15-.28Z"></path><path d="M59.02,84.24c.58,0,1.09.18,1.51.53s.74.85.97,1.51c.23.65.34,1.43.34,2.33s-.11,1.68-.34,2.33c-.23.65-.55,1.15-.97,1.51s-.92.53-1.51.53-1.09-.18-1.51-.53-.74-.85-.97-1.51c-.23-.65-.34-1.43-.34-2.33s.11-1.68.34-2.33c.23-.65.55-1.15.97-1.51s.92-.53,1.51-.53ZM59.02,84.6c-.61,0-1.09.36-1.45,1.07-.36.71-.53,1.69-.53,2.93s.18,2.22.53,2.93c.36.72.84,1.07,1.45,1.07s1.1-.36,1.45-1.07c.35-.71.53-1.69.53-2.93s-.18-2.22-.53-2.93c-.35-.72-.84-1.07-1.45-1.07Z"></path></g></g></g></g></svg> 